<?xml version="1.0" encoding="UTF-8" standalone="no"?>
<svg
   xmlns:dc="http://purl.org/dc/elements/1.1/"
   xmlns:cc="http://creativecommons.org/ns#"
   xmlns:rdf="http://www.w3.org/1999/02/22-rdf-syntax-ns#"
   xmlns:svg="http://www.w3.org/2000/svg"
   xmlns="http://www.w3.org/2000/svg"
   xmlns:sodipodi="http://sodipodi.sourceforge.net/DTD/sodipodi-0.dtd"
   xmlns:inkscape="http://www.inkscape.org/namespaces/inkscape"
   version="1.1"
   x="0px"
   y="0px"
   viewBox="0 0 65 81.25"
   style="enable-background:new 0 0 65 65;"
   xml:space="preserve"
   id="svg14"
   sodipodi:docname="encryption.svg"
   inkscape:version="0.92.3 (2405546, 2018-03-11)"
   inkscape:export-filename="C:\Users\coder\source\repos\Ubiety\Ubiety.Scram.Core\docs\Ubiety.Scram.Docs\images\encryption64.png"
   inkscape:export-xdpi="96"
   inkscape:export-ydpi="96"><metadata
     id="metadata20"><rdf:RDF><cc:Work
         rdf:about=""><dc:format>image/svg+xml</dc:format><dc:type
           rdf:resource="http://purl.org/dc/dcmitype/StillImage" /><dc:title></dc:title></cc:Work></rdf:RDF></metadata><defs
     id="defs18" /><sodipodi:namedview
     pagecolor="#ffffff"
     bordercolor="#666666"
     borderopacity="1"
     objecttolerance="10"
     gridtolerance="10"
     guidetolerance="10"
     inkscape:pageopacity="0"
     inkscape:pageshadow="2"
     inkscape:window-width="1920"
     inkscape:window-height="1017"
     id="namedview16"
     showgrid="false"
     inkscape:zoom="2.9046154"
     inkscape:cx="32.5"
     inkscape:cy="40.625"
     inkscape:window-x="-8"
     inkscape:window-y="-8"
     inkscape:window-maximized="1"
     inkscape:current-layer="svg14" /><g
     id="g8"><g
       id="g6"><path
         d="M34.5,35.3c0.7-0.7,1.1-1.7,1.1-2.7c0-2.1-1.7-3.8-3.8-3.8s-3.8,1.7-3.8,3.8c0,1,0.4,2,1.1,2.7l-1.4,5.9    c-0.1,0.3,0,0.6,0.2,0.9s0.5,0.4,0.8,0.4H35c0.3,0,0.6-0.1,0.8-0.4s0.3-0.6,0.2-0.9L34.5,35.3z M30,40.5l1.3-5.3    c0.1-0.4-0.1-0.8-0.4-1.1c-0.5-0.3-0.8-0.9-0.8-1.5c0-1,0.8-1.8,1.8-1.8s1.8,0.8,1.8,1.8c0,0.6-0.3,1.2-0.8,1.5    c-0.4,0.2-0.5,0.7-0.4,1.1l1.3,5.3H30z"
         id="path2" /><path
         d="M55.7,36.6c0.6,1.9,2.3,3.2,4.3,3.2c2.5,0,4.5-2,4.5-4.5s-2-4.5-4.5-4.5c-2.2,0-4.1,1.6-4.4,3.8H42.9v-4.3h7.8    c0.3,0,0.5-0.1,0.7-0.3l4.2-4.2c0.6,0.3,1.2,0.4,1.8,0.4c2.5,0,4.5-2,4.5-4.5c0-2.5-2-4.5-4.5-4.5s-4.5,2-4.5,4.5    c0,1.1,0.4,2.1,1.1,2.9l-3.7,3.7h-7.5c-0.3-1.4-1.2-2.5-2.4-3.1l6.9-6.1c0.1-0.1,0.2-0.2,0.3-0.3l2.2-5c0.3,0.1,0.6,0.1,0.9,0.1    c2.5,0,4.5-2,4.5-4.5s-2-4.5-4.5-4.5s-4.5,2-4.5,4.5c0,1.5,0.7,2.8,1.8,3.6l-2.1,4.8l-6.4,5.6v-2.3c0-4.2-3.4-7.6-7.6-7.6    c-4.2,0-7.6,3.4-7.6,7.6v1.3l-2.6-3.7v-9c2-0.5,3.5-2.2,3.5-4.4c0-2.5-2-4.5-4.5-4.5s-4.5,2-4.5,4.5c0,2.1,1.5,3.9,3.5,4.4V19    c0,0.2,0.1,0.4,0.2,0.6l3.8,5.4c-1.4,0.6-2.4,1.8-2.7,3.3h-6.3L11,24.6c0.7-0.8,1.1-1.8,1.1-2.9c0-2.5-2-4.5-4.5-4.5    S3,19.2,3,21.7c0,2.5,2,4.5,4.5,4.5c0.7,0,1.3-0.1,1.8-0.4l4.2,4.2c0.2,0.2,0.4,0.3,0.7,0.3h6.6v4.3H9.4c-0.3-2.1-2.2-3.8-4.4-3.8    c-2.5,0-4.5,2-4.5,4.5s2,4.5,4.5,4.5c2,0,3.7-1.4,4.3-3.2h11.6V41h-6.6c-0.3,0-0.5,0.1-0.7,0.3l-3.5,3.5c-0.8-0.6-1.7-0.9-2.7-0.9    c-2.5,0-4.5,2-4.5,4.5s2,4.5,4.5,4.5s4.5-2,4.5-4.5c0-0.7-0.2-1.4-0.5-2.1l3.3-3.3H21c0.5,2.1,2.3,3.7,4.6,3.7h2.1v8.6L26,56.4    c-0.8-0.8-1.9-1.3-3.1-1.3c-2.5,0-4.5,2-4.5,4.5s2,4.5,4.5,4.5c1.7,0,3.2-0.9,4-2.4c0.6-1.2,0.7-2.5,0.2-3.7    c1.8-1.3,2.6-1.4,2.6-2.3v-9.2h4.4v6.1c0,0.4,0.2,0.7,0.6,0.9l3.9,1.9c-0.7,2.9,1.5,5.5,4.4,5.5c2.5,0,4.5-2,4.5-4.5    s-2-4.5-4.5-4.5c-1.4,0-2.7,0.7-3.5,1.7l-3.4-1.7v-5.5h2.1c2.3,0,4.1-1.6,4.6-3.7h7.5l3.3,3.3c-0.3,0.6-0.5,1.3-0.5,2.1    c0,2.5,2,4.5,4.5,4.5c2.5,0,4.5-2,4.5-4.5s-2-4.5-4.5-4.5c-1,0-1.9,0.3-2.7,0.9l-3.5-3.5C51.3,41.1,51,41,50.7,41h-7.8v-4.3H55.7z     M60,32.8c1.4,0,2.5,1.1,2.5,2.5c0,1.4-1.1,2.5-2.5,2.5c-1.4,0-2.5-1.1-2.5-2.5C57.5,34,58.6,32.8,60,32.8z M57.5,19.2    c1.4,0,2.5,1.1,2.5,2.5c0,1.4-1.1,2.5-2.5,2.5c-1.4,0-2.5-1.1-2.5-2.5C55,20.3,56.1,19.2,57.5,19.2z M50.7,6.8    c1.4,0,2.5,1.1,2.5,2.5c0,1.4-1.1,2.5-2.5,2.5s-2.5-1.1-2.5-2.5C48.2,7.9,49.3,6.8,50.7,6.8z M18.2,5.3c0-1.4,1.1-2.5,2.5-2.5    s2.5,1.1,2.5,2.5s-1.1,2.5-2.5,2.5S18.2,6.7,18.2,5.3z M5,21.7c0-1.4,1.1-2.5,2.5-2.5c1.4,0,2.5,1.1,2.5,2.5    c0,1.4-1.1,2.5-2.5,2.5C6.1,24.2,5,23.1,5,21.7z M5,37.8c-1.4,0-2.5-1.1-2.5-2.5c0-1.4,1.1-2.5,2.5-2.5s2.5,1.1,2.5,2.5    C7.5,36.7,6.4,37.8,5,37.8z M7.4,50.9c-1.4,0-2.5-1.1-2.5-2.5c0-1.4,1.1-2.5,2.5-2.5c1.4,0,2.5,1.1,2.5,2.5    C9.9,49.7,8.8,50.9,7.4,50.9z M25,60.9c-0.4,0.8-1.3,1.3-2.2,1.3c-1.4,0-2.5-1.1-2.5-2.5s1.1-2.5,2.5-2.5    C24.7,57.2,26,59.1,25,60.9z M42.9,54.2c1.4,0,2.5,1.1,2.5,2.5c0,1.4-1.1,2.5-2.5,2.5c-1.4,0-2.5-1.1-2.5-2.5    C40.4,55.3,41.5,54.2,42.9,54.2z M31.9,15.5c3.1,0,5.6,2.5,5.6,5.6v3.5H26.3v-3.5C26.3,18,28.8,15.5,31.9,15.5z M40.9,42    c0,1.5-1.2,2.7-2.7,2.7H25.6c-1.5,0-2.7-1.2-2.7-2.7V29.3c0-1.5,1.2-2.7,2.7-2.7h12.6c1.5,0,2.7,1.2,2.7,2.7V42z M57.6,45.9    c1.4,0,2.5,1.1,2.5,2.5c0,1.4-1.1,2.5-2.5,2.5c-1.4,0-2.5-1.1-2.5-2.5C55.1,47,56.2,45.9,57.6,45.9z"
         id="path4" /></g></g><path
     style="fill:#999999;stroke-width:0.34427965"
     d="m 24.43149,44.215978 c -0.404444,-0.195835 -0.907953,-0.73488 -1.118909,-1.197877 -0.517095,-1.134901 -0.518205,-13.564121 -0.0013,-14.698577 0.650655,-1.428031 1.62324,-1.603422 8.891366,-1.603422 9.184947,0 8.425434,-0.734634 8.563401,8.282899 0.114842,7.506027 -0.05972,8.563901 -1.523196,9.230703 -1.095357,0.499079 -13.776563,0.487327 -14.81135,-0.01373 z m 11.503051,-2.867991 c 0.05226,-0.568061 -0.206702,-2.109784 -0.575482,-3.426051 -0.593975,-2.12004 -0.614646,-2.501239 -0.181098,-3.339629 0.872171,-1.686593 0.632396,-3.316441 -0.681139,-4.629976 -0.981677,-0.981678 -1.418594,-1.170551 -2.707808,-1.170551 -3.000686,0 -4.584467,2.439148 -3.528278,5.433826 0.544742,1.544537 0.538789,1.763884 -0.121796,4.487847 -0.381992,1.575168 -0.60761,3.090452 -0.501374,3.367299 0.157202,0.409663 0.938534,0.485369 4.197551,0.406716 l 4.004396,-0.09664 z"
     id="path22"
     inkscape:connector-curvature="0" /><path
     style="fill:#ff0000;stroke-width:0.34427965"
     d="m 49.09428,10.879237 c -1.413065,-1.4130646 -0.46309,-3.787076 1.515421,-3.787076 1.388115,0 2.271655,0.8936454 2.271655,2.2976375 0,1.9834565 -2.363504,2.9130115 -3.787076,1.4894385 z"
     id="path34"
     inkscape:connector-curvature="0" /><path
     style="fill:#ff0000;stroke-width:0.34427965"
     d="m 58.633139,37.038964 c -1.24379,-0.978365 -1.254423,-2.445012 -0.02474,-3.412281 1.084008,-0.85268 1.77687,-0.896577 2.803344,-0.177606 0.523983,0.367012 0.765164,0.888859 0.765164,1.655596 0,2.208642 -1.886162,3.238164 -3.543768,1.934291 z"
     id="path36"
     inkscape:connector-curvature="0" /><path
     style="fill:#ff0000;stroke-width:0.34427965"
     d="m 41.332338,58.23334 c -1.072297,-1.072298 -1.072297,-2.057518 0,-3.129815 0.464778,-0.464778 1.168986,-0.84505 1.564908,-0.84505 0.928865,0 2.409957,1.481092 2.409957,2.409957 0,0.928865 -1.481092,2.409958 -2.409957,2.409958 -0.395922,0 -1.10013,-0.380273 -1.564908,-0.84505 z"
     id="path38"
     inkscape:connector-curvature="0" /><path
     style="fill:#ff0000;stroke-width:0.34427965"
     d="m 22.240466,61.907174 c -1.726222,-0.54952 -2.27883,-2.615632 -1.032839,-3.861623 1.750667,-1.750667 4.539633,0.103185 3.714811,2.46927 -0.332026,0.952452 -1.750522,1.688868 -2.681972,1.392353 z"
     id="path40"
     inkscape:connector-curvature="0" /><path
     style="fill:#ff0000;stroke-width:0.34427965"
     d="m 5.7400302,23.054736 c -0.8927002,-1.134884 -0.8927002,-1.526494 0,-2.661379 1.3159933,-1.673014 4.1063681,-0.768779 4.1063681,1.33069 0,2.099468 -2.7903748,3.003704 -4.1063681,1.330689 z"
     id="path42"
     inkscape:connector-curvature="0" /><path
     style="fill:#008000;stroke-width:0.34427965"
     d="m 3.4615755,36.888001 c -1.0722973,-1.072298 -1.0722973,-2.057518 0,-3.129815 0.4647776,-0.464778 1.1689859,-0.84505 1.5649076,-0.84505 0.9288651,0 2.4099576,1.481092 2.4099576,2.409957 0,0.928865 -1.4810925,2.409958 -2.4099576,2.409958 -0.3959217,0 -1.10013,-0.380273 -1.5649076,-0.84505 z"
     id="path44"
     inkscape:connector-curvature="0" /><path
     style="fill:#008000;stroke-width:0.34427965"
     d="m 5.8715331,49.970628 c -1.0722973,-1.072297 -1.0722973,-2.057518 0,-3.129815 1.0813037,-1.081304 2.0587014,-1.071114 3.1627894,0.03297 1.0187575,1.018758 0.9107371,2.337264 -0.2735843,3.339402 -0.9817153,0.830697 -1.8924025,0.754242 -2.8892051,-0.242561 z"
     id="path46"
     inkscape:connector-curvature="0" /><path
     style="fill:#008000;stroke-width:0.34427965"
     d="M 20.174788,7.5129413 C 18.446973,6.9563771 17.895996,4.8953175 19.141949,3.6493644 c 1.408063,-1.408063 3.787076,-0.3602131 3.787076,1.6680392 0,1.3736031 -1.527005,2.5908538 -2.754237,2.1955377 z"
     id="path48"
     inkscape:connector-curvature="0" /><path
     style="fill:#008000;stroke-width:0.34427965"
     d="m 55.861092,23.332266 c -0.756267,-0.835666 -0.724668,-2.566307 0.05982,-3.276259 1.448816,-1.31116 3.846037,-0.308228 3.846037,1.609079 0,1.937493 -2.641033,3.064795 -3.905857,1.66718 z"
     id="path50"
     inkscape:connector-curvature="0" /><path
     style="fill:#008000;stroke-width:0.34427965"
     d="m 56.198442,50.102131 c -0.601522,-0.473157 -0.907128,-1.044668 -0.907128,-1.696411 0,-1.082954 1.352569,-2.409957 2.456386,-2.409957 1.75941,0 2.661464,2.800582 1.33069,4.131356 -0.879714,0.879713 -1.739288,0.872255 -2.879948,-0.02499 z"
     id="path52"
     inkscape:connector-curvature="0" /></svg>