<?xml version="1.0" encoding="UTF-8"?>
<svg version="1.1" viewBox="0 0 390.11 371.88" xmlns="http://www.w3.org/2000/svg">
 <g transform="translate(-176.42 -133.36)">
  <g transform="matrix(3.5767 0 0 3.6988 -384.65 -1201.8)" fill="#dcbf6e">
   <path d="m211.7 363.27c3.035-0.0545 6.1472 1.0423 8.75 3.1562 3.8504 3.3163 4.7782 5.3027 4.3125 11.312 1.056 3.6621 1.3603 7.2307 0.75 11 2.6095 2.1372 5.859 3.05 9.0938 3.7812 6.4623 2.1536 9.4202 8.6606 13.25 13.75 2.3942 3.8036 5.6705 7.31 7.3438 11.406 0.76631 2.2222 0.0667 4.9738-0.75 5.2188-2.2713 0.68121-3.3308 0.59966-4.5312 0.71875-1.7076-0.6589-2.6775-1.8728-4.2812-3.4375-3.0412-0.28186-4.3287-2.366-4.7812-5.2188 0.77329-0.90361 3.6455-2.032 6.8438-2.2188 5.578 0.19476-3.9105-7.5962-4.4062-10.25-2.9985-3.9425-6.1519-8.8683-11.812-8.7188-1.5969 2.5521 0.91102 6.789 2.7812 10.156 2.3494-0.74862 12.306-0.45129 7.7812 0.625-0.80074-0.0533-6.288 0.27437-7.625-0.375 0.35203 0.63743 0.67669 1.2638 0.9375 1.8125 3.7263 3.9456 5.9576 13.31 8.6562 17.188-0.34074 3.1003-4.626-3.3626-4.125-5.8438-1.2891-6.2535-6.5318-10.733-8.7812-16.625-1.2491-3.8076-1.4537-8.8315-5.875-9.9062 1.8734 4.4983 1.5311 10.193 4.25 14.438 1.6048 4.7491 6.5234 7.3128 7 12.5 2.8048 4.9367-1.6345 15.549-5.0625 19.344-7.8695 5.2066-15.639 2.5478-25.156 1.6562-4.9218-1.2593-1.096 3.6896-3.5312 6.4062-0.39201 1.8975-10.268 9.0971-6.6562 8.3125 4.1714 0.60103 8.4373 0.94773 12.656 1.2812 4.9059-1.1304 10.073 1.8648 14.719-0.1875 3.305-3.7598 5.3173-8.5372 7.9062-12.812 2.7802-3.5757 2.5334-9.325 5.5938-12.219-2.2848 9.0795-6.257 17.998-12.406 25.156 2.3645 0.96212 4.811-6.4011 7.5-8.25 1.9632 2.5533-4.1964 6.0476-4.375 9.125 4.3913 0.42453 8.839-1.0673 12.5-3.4688 5.977-3.6749 13.07-0.6851 18.469 2.5625 0.5737-2.6418-4.7952-7.2296-5.3125-11.125 0.70701-5.7786-4.9579-3.3525-8.2188-1.9688-4.4037 2.6078-7.9066 7.3671-12.969 8.7812 1.9133-2.0957 5.052-4.666 7.875-6.2812 3.1255-4.435 8.5994-4.9042 13.062-6.2188 2.2024-4.8575 4.6041-10.479 2.8125-15.844 1.5326-0.99287 2.8708 7.224 0.96875 9.5312-1.7571 4.7662-3.5342 10.468-0.5 15.125 0.9225 3.4443 8.14 9.0281 3.7188 11.469-4.7793-0.80302-9.0018 0.67261-13.812 0.40625-1.6954 0.0495-3.4014 0.31949-5.0938 0.21875-4.3785-3.724-9.6279-1.3519-14.625-2.0312-4.7484 0.56276-9.5553-0.2061-14.312-0.6875-6.4741 0.0241-13.042-0.16546-19.469-0.34375-3.4262 3.3438-8.3572 1.911-12.656 1.9688-4.954-0.69596-10.594 0.5027-15.094-1.9375-4.4756-6.3729-4.6389-15.277-1.6562-22.312 4.3318-4.0958 3.6819-7.6197 2.9062-11.656-0.77948-0.83083 2.001-9.6744 4.625-13.156 2.8957-7.3049 7.097-15.327 15.156-17.844 4.4835-0.73184 8.8461-0.57957 12.562-3.5312 0.0894-2.7937-0.20878-5.6171 0.3125-8.375 1.6214-4.5095 0.89723-7.8009 4.4062-11.812 2.3622-2.4856 5.34-3.6955 8.375-3.75zm22.719 40.906c-0.0466-0.0844-0.10871-0.16442-0.15625-0.25-0.0453 0.0144-0.11681 0.016-0.15625 0.0312 0.0362 0.094 0.16946 0.14926 0.3125 0.21875zm-22.125-40.031c-3.9016-0.0308-7.357 1.2838-9.4688 5.4375-1.2694 1.7768-3.234 7.5569 0.0312 4.5 1.146-2.5766 7.9997 0.3451 4.5312 0.71875-5.6744-2.0978-7.4864 4.5913-7.5938 8.8438-1.1068 5.1066 1.5772 10.799 6.6875 12.438 3.7012 1.2209 7.8126 0.81849 11.5-0.25 5.0221-0.97749 7.1456-6.3134 6.6562-10.938-0.22604-4.4665-1.1038-11.858-7.5-9.75-1.7702-2.5086 5.7327-1.7036 6.75 0.34375 0.84109-5.4946-4.2699-10.084-9.9062-11.25-0.57237-0.055-1.1301-0.0894-1.6875-0.0937zm-6.3438 13.406c0.30619-0.0449 0.60263-0.0102 0.875 0.125 3.3333 2.2274-0.63657 0.50271-1.8125 1.8125-3.7054 2.4017-1.2058-1.6231 0.9375-1.9375zm13.125 0.125c1.4961 0.0368 3.1366 1.005 3.3125 2.5-2.2277 0.13419-3.5109-2.1022-5.8125 0.53125-0.36474-2.1643 1.0039-3.0681 2.5-3.0312zm-3.2812 6.5938c0.45028 0.0581 0.69489 0.78696 0.15625 2.0625-1.2369 1.0662-4.4677-1.6506-1.3438-0.78125 0.22916-0.74851 0.63134-1.1603 0.96875-1.25 0.0703-0.0187 0.15442-0.0395 0.21875-0.0312zm-7.9688 0.0625c0.60274-0.15486 1.8557 1.4683 2.8438 1.625-0.82004 0.34841-2.4611 0.70314-3.1562 0-0.0882-1.1128 0.0385-1.5546 0.3125-1.625zm4.0938 3.625c2.4367-0.0515 5.1282 0.5761 2.875 1.6562-0.89492 1.2993-3.0458 1.1308-4.3125 0.6875-3.1984-1.5657-0.99922-2.2922 1.4375-2.3438zm-14.438 1.9062c-3.5121 1.6692-3.7823 5.5926-3.25 8.9375-3.6339 4.9107-6.5456 10.425-11.094 14.594-2.248 4.0842-4.6011 10.125 0.53125 13.219 5.2902 4.3894 12.379 5.118 18.844 6.5938 7.2093 1.71 18.088 2.0594 25 0.28125 4.481-0.98061 5.7394-7.3351 7.0938-10.469 1.9364-1.1205 0.51319-3.6012 0.75-5.375-0.0292-4.6043-5.4063-6.6287-6.0625-11.125-3.9368-3.1323-1.998-11.417-5.625-12.906-4.6396 5.0451-12.49 5.8457-18.594 3.25-4.1324-0.35989-5.1414-6.6142-7.5938-7zm-6.2812 1.8125c-0.34591 1e-3 -0.6882 0.0175-1.0312 0.0312-4.8027 0.19283-9.7556 2.0121-12.312 6.3125-1.4229 2.8131-8.4331 10.6-1.0312 9.2188 4.421 0.50223 6.491 0.38893 8.5625-3.9375 2.3858-3.7397 5.7404-7.2785 6.8438-11.594-0.3358-0.0181-0.68534-0.0323-1.0312-0.0312zm20.781 0.59375c1.0872-0.022 2.2128 0.14453 2.25 0.5625-0.66416 0.2543-1.3572 0.32719-2.0625 0.34375-3.6742-0.36071-1.9995-0.86963-0.1875-0.90625zm-18.938 1.7812c-3.6277 5.3681-7.3756 10.698-11.062 16.031-3.0248 1.6915-2.3338 9.8576-6.3125 7.5938-2.34-4.4725-10.112-1.7478-8.4062 3.5938l-0.0937 0.9375v0.78125c1.3277 4.2728 2.4908-1.1332 2.4688-2.9688 1.6297-4.7576 1.0495 1.6679 0.8125 3.2812 2.4962 3.6469 0.97738-5.1338 3.7812-4.8438 1.3215 2.3677 2.1753 2.4871 4.5 2.6562 0.98592-5.8487 5.3404-10.295 9-14.719 1.9794-3.9949 6.228-7.4614 5.3125-12.344zm-15.531 13.75c-3.0293 0.1151-6.5314 2.0526-5.3438 4.0938-1.1475 0.60317-1.4902 0.10782-2.9375 2.0625-0.66615 2.1919 5.2024-0.56167 6.2188 1.8438 2.7398 2.9051 4.2128-5.1805 5.4062-6.875-0.70227-0.85189-1.9668-1.1773-3.3438-1.125zm30.438 0.78125c3.2929-0.1314 6.9752 0.55587 11.062 2.625 1.6984 0.91444 8.8724 5.3679 6.4375 6.4688-10.008-9.7999-21.096-10.608-31.469-1.2188-2.0485 2.5145-2.5656 0.37965 0.65625-2.9375 3.4025-2.2354 7.8243-4.7185 13.312-4.9375zm40.5 5c-2.9457 0.10807-6.2201 1.6012-6.2188 2.75 2e-3 1.414 2.9331 0.90003 4.3438 1.6875 2.3824 1.3299 2.1026 4.6963 4.0625 4.4688 1.411-0.16384-1.2888-5.2328-0.53125-6.0625 0.9304 0.67595 2.4111 6.4537 3.625 5.8438 1.134-0.56979-0.6678-6.0226-1.125-7-0.74156-1.3118-2.3888-1.7524-4.1562-1.6875zm-74.625 7.3438c-0.53438 0.0486-0.75442 1.2488-0.65625 2.6875-0.78738 0.87345-1.7872 2.1709-2.25 1.3125-1.9846-1.7014-3.3073 1.7624-2.5312 3.0312-2.7844 3.9689-5.7574 8.2574-5.25 13.375-0.38066 5.2146 0.35751 12.159 6.25 13.938 3.1015 0.68574 6.3112 0.44813 9.4688 0.53125 1.8772 0.40104 3.2954-0.29565 4.375-1.8438 5.0544-4.6039 9.2628-10.067 12.094-16.312-0.56463-4.7775-4.6518 2.0776-7.375 1.9062-4.3515 0.73881-6.6443-2.55-9.8125-5.6875 5.1981 0.28647 4.3969 6.1936 9.375 4.2812 6.7669-1.3698 3.0209-3.6014 0.78125-5.0938-4.7307-3.475 0.87377-1.2791 2.375-0.3125 4.3509 2.7792 9.7303 2.5836 14.312 4.6562 6.308 0.0618 17.773 2.8224 23.531-0.34375 4.1583-2.3162 5.321-5.3211 6.7812-10.5 1.9452-4.8479-3.5967 6.188-4.8125 7.0625-7.742 4.4806-16.089 0.7877-24.875 1.7188-5.6519-1.484-11.848-1.6208-16.906-4.8438-1.6094-0.0502-8.3542-5.21-5.4375-1.5312-2.669-0.29988-4.6769-4.5547-7.625-5.6562-0.79132-1.7692-1.3969-2.4128-1.8125-2.375zm3.125 0.9375c-0.81672 0.14758 2.4152 2.255 2.875 3.3438 3.1858 2.9773-0.5237-2.3213-1.5625-3.0938-0.70161-0.20951-1.124-0.28407-1.3125-0.25zm62.719 1.4688c-0.94621 7.5468 0.14009 16.192-5.4375 22.25l-0.84375 0.34375c0.0193-2.5079 3.3382-5.3605 3.4062-8.5 1.3832-4.4287 0.90677-10.548 2.875-14.094zm13.594 6.4062c0.29723-0.022 0.59794-0.0134 0.90625 0-0.8944 2.025-7.2822 3.1704-9.0625 6.5938-0.74057 1.3882-4.925 4.1444-2.125 1.1562 2.589-3.2545 5.8228-7.42 10.281-7.75zm-56.219 6.7812c-1.4183 4.08-4.1473 7.4778-6.6875 10.906-0.58255 3.1835-8.3774 6.8875-5.3438 8.3438 2.7076 0.46421 5.3031 0.81119 7.2188-1.6562 3.5763-3.4362 6.6471-5.258 9.0312-9.5 3.2502-3.4534-0.54188-8.1782-4.2188-8.0938zm-3.4062 1.6875c-1.6312 3.6695-5.3322 4.9128-9.1875 6.4688l-3.875 1.5-4.1875 2.0938c-5.2588 0.50672-6.2148-3.3741-11.062-5.4688 1.6612-2.0451 5.3457 4.268 8.9062 3.6875 5.8056-0.25066 14.149-6.1904 19.406-8.2812zm52.406 14.031c-3.4356-0.056-9.1718 1.4464-6 4.6875 1.0667 0.80061 4.278 0.58136 3.0938-1.4688-0.30154-3.973 0.81687 1.2302 2.4375 1.0625 0.24773-2.172 1.8983-4.5242 1.5312-0.53125 1.4936 3.2022 3.1686-4.7688 0.25-3.625-0.36385-0.0713-0.8217-0.117-1.3125-0.125zm5.5312 0.84375c-1.5389-0.13546-2.9976 1.4922-1.1562 3.4375 1.2696 1.3182 0.94075-0.60965 1.0312-1 0.60116-4.0888 0.83509 3.6687 2.2812 0.0312-0.28247-1.6573-1.2329-2.3875-2.1562-2.4688z" opacity=".63942"/>
   <path d="m208.77 433.82c-2.8493-0.33093-7.9044-1.2486-11.234-2.0393-11.027-2.619-16.466-6.0352-16.466-10.343 0-3.0307 1.6735-7.136 3.8566-9.4604 0.91316-0.97227 3.4418-4.2672 5.6194-7.3222 3.1554-4.4268 3.9591-6.1055 3.9591-8.2691 0-1.823 0.5409-3.3435 1.6468-4.6292l1.6468-1.9145 2.3483 3.2699c1.9317 2.6899 3.0072 3.4615 6.0634 4.3499 6.1798 1.7965 12.5 0.94919 15.905-2.1323 1.8456-1.6703 3.185-0.47163 3.8019 3.4025 0.59979 3.7663 3.3419 9.6171 6.3611 13.572 2.4858 3.2566 3.7036 8.048 2.5668 10.099-0.37811 0.68225-1.4833 2.9905-2.456 5.1295-0.97269 2.139-2.405 4.282-3.1829 4.7623-1.213 0.74895-12.485 2.4621-14.549 2.2112-0.3889-0.0473-3.0383-0.35669-5.8876-0.68761zm-12.986-18.275c6.7199-5.3783 14.759-6.5833 21.486-3.2205 2.0634 1.0315 4.5646 2.6481 5.5581 3.5925 1.9238 1.8286 3.8052 2.2999 3.3257 0.83318-0.51985-1.5901-7.1768-6.1562-10.677-7.3234-8.2396-2.7478-23.093 2.0604-23.093 7.4753 0 1.1314 0.58042 0.89975 3.4002-1.3571z" opacity=".63942"/>
   <path d="m174 405.79c-8.9e-4 -0.68059 1.4444-3.3554 3.2118-5.944 3.4963-5.1209 6.247-6.9252 11.452-7.5118l3.0518-0.34399-0.75863 1.9955c-0.88304 2.3225-6.7517 10.864-8.3534 12.158-0.6018 0.48613-2.7835 0.88388-4.8481 0.88388-3.1032 0-3.7542-0.21452-3.7556-1.2374z" opacity=".63942"/>
   <path d="m174.94 406.75c-1.3501-0.38983-1.1648-1.1939 1.1451-4.9703 3.0072-4.9164 5.6662-7.48 8.9174-8.5977 1.2141-0.41738 6.3821-1.2286 6.5781-1.0326 0.17753 0.17753-1.65 3.7189-3.099 6.0052-2.3331 3.6813-5.5096 7.7753-6.2796 8.0934-1.7085 0.70573-5.6199 0.97609-7.262 0.50195z" opacity=".63942"/>
   <path d="m190.62 391.18c-5.2398 0.0548-10.84 2.2063-13.509 6.9712-1.519 2.5464-3.6409 4.9877-4.0843 7.9976-0.10432 1.6973 1.9231 1.7369 3.1248 1.7126 2.8551-0.01 6.5796 0.57529 8.422-2.1892 0.45773-0.90409 1.7652-1.8494 1.2266-2.9453-1.3554-0.53586-1.9255 1.4555-2.8203 2.1406-1.8394 1.9497-4.8787 1.4446-7.2891 1.4844-0.72212 0.063-1.377-0.37384-0.875-1.1094 2.0888-4.362 4.9641-8.8481 9.3516-11.133 2.1437-0.81667 4.3829-1.346 6.6797-1.4062-0.45428 1.4456-1.7597 2.7365-1.6562 4.2891 1.1211 1.0235 1.7367-0.96526 2.2109-1.7188 0.37222-1.2385 1.6725-2.5528 1.1562-3.875-0.54807-0.39883-1.3066-0.1659-1.9375-0.21875z" opacity=".63942"/>
   <path d="m211.39 362.78c-5.6204 0.14651-10.598 4.6542-11.561 10.154-1.215 4.0535-1.9348 8.2772-1.8372 12.54 0.30058 1.198-0.33273 1.8925-1.3594 2.3213-4.6634 2.4294-10.5 1.2374-14.898 4.3906-5.8654 3.7275-8.8083 10.312-11.581 16.395-2.1839 3.8215-3.9544 8.0043-4.5054 12.394 0.40554 3.0981 1.1812 6.5246-0.57813 9.3672-1.3148 1.811-2.8076 3.571-3.2818 5.8335-1.5669 6.3637-1.3328 13.644 2.4302 19.221 2.1816 2.4806 5.8331 2.1326 8.8197 2.455 5.2247 0.11199 10.47 0.72084 15.688 0.4044 1.6517-0.24307 3.0851-1.2836 4.4765-2.0028 9.1608 0.14618 18.326 0.33523 27.461 1.0512 5.6346 0.23892 11.335-0.1524 16.929 0.0911 1.6774 0.62502 3.06 2.0729 4.9934 1.8284 5.6983 0.11456 11.355-0.81961 17.055-0.74923 2.16 0.0926 2.9797-2.6796 1.9219-4.2734-2.1229-4.169-5.7188-7.8171-6.2266-12.641-0.33995-4.3699 1.9165-8.3313 2.8672-12.477-0.0284-2.5131 0.33081-5.5042-1.5547-7.4688-0.86531-0.10502-0.83858-0.27021-0.67188-1.1797 0.3683-3.7414-2.4808-6.6761-4.2649-9.6519-3.5504-4.9524-6.7206-10.232-10.834-14.744-2.4898-2.7232-6.002-4.1425-9.4901-4.9882-1.8413-0.62245-3.6379-1.4195-5.2081-2.5772 0.15021-3.3804 0.10731-6.8144-0.62226-10.084-0.16978-3.428 0.13399-7.3507-2.4168-10.048-2.9166-3.3842-7.1805-5.8051-11.75-5.5625zm0.53907 1.9375c5.2495 0.0696 10.89 3.8287 11.484 9.3516-0.0939 0.40425-1.0781-0.53516-1.5625-0.49219-1.6497-0.34096-3.7564-0.95827-5.2031 0.17188-0.90065 0.8595 0.19163 2.0639 1.2422 1.7656 1.552-0.25506 3.3395-0.0603 4.2109 1.4375 2.0244 3.2902 2.022 7.3824 1.7891 11.125-0.26765 3.7975-3.4862 6.9227-7.181 7.4787-3.2894 0.70321-6.8857 0.92851-10.1-0.0803-4.1565-1.4601-6.8047-5.9196-6.3173-10.25 0.25771-3.3968 0.32686-7.591 3.3876-9.7424 1.5264-1.1815 3.5672 0.45238 5.0625-0.67187 0.61903-1.3292-1.4154-1.8169-2.3203-2.1562-1.749-0.65013-3.4674 0.26089-4.6406 1.5234 0.38359-2.738 1.9004-5.2939 3.8438-7.2422 1.7031-1.4658 4.0317-2.232 6.3047-2.2188zm14.414 27.211c2.9202 1.7352 2.9996 5.5081 4.1172 8.3594 1.9509 6.0769 7.2652 10.534 8.6953 16.805 0.43497 2.7649 1.4526 5.9619 4.0625 7.3672 1.3953 0.39727 1.5553-1.534 0.84375-2.3281-0.33032-0.73026-1.0217-1.806-1.1172-2.3438 1.2242 0.70845 2.6544 0.91908 3.5781 2.1016 1.3726 1.4993 3.3408 2.6933 5.4426 2.0727 1.2228-0.0715 2.8744-0.60226 3.5027-1.3306 0.99259 4.129-0.0779 8.4167-1.7734 12.227-0.54531 1.1008-0.70412 2.7593-2.2695 2.7789-3.9931 1.1432-8.3527 2.0855-11.263 5.3145-2.5198 2.1786-5.5445 3.8921-7.772 6.3285 0.7071-0.99031 0.93943-3.1087-0.48437-3.4062-0.50083 0.077-1.9204 2.0871-1.2578 1.0156 2.9164-5.2097 5.2552-10.836 6.5938-16.664 0.0646-0.56481-0.69734-0.80924-0.96875-0.71094 1.9695-4.6566 2.108-10.075-0.0662-14.691-1.8796-3.8879-5.1341-6.8971-6.7641-10.911-1.8206-3.8019-2.0053-8.0984-3.2635-12.085zm-35.609 0.82031c-0.4872 1.5002-1.5591 2.733-2.0781 4.1875 0.57091 0.87169-0.79488 1.4557-1.1084 2.2488-0.92872 1.3632-1.8559 2.6913-3.1026 3.7122-1.0698 1.7128-2.644 3.4146-4.8263 3.3195-1.5552 0.058-3.4596 0.44924-4.869-0.28047 0.97866-3.0753 3.0405-5.724 4.9844-8.2734 2.1015-2.5739 5.1239-4.2436 8.4531-4.5469 0.8421-0.14607 1.7084-0.3011 2.5469-0.36719zm41.961 1.7109c4.612 0.64908 7.4819 4.7931 10 8.2969 1.0041 1.0581-0.95859 0.13089-1.5469 0.33594-2.1799-0.12016-4.4977-0.0904-6.6016 0.10156-1.2217-2.4661-2.9787-4.9783-2.9375-7.8281 0.13822-0.6874 0.13185-1.2649 1.0859-0.90625zm-40.273 1.7188c-0.33616 3.1416-2.6636 5.5973-4.2176 8.2423-3.466 5.1823-8.4467 9.6688-9.9152 15.961-1.6518 0.2704-2.8537-1.0942-3.7656-2.2578-1.4112-0.80799-2.2295 1.2309-2.4688 2.2891-0.33281 0.9091-0.3774 2.3181-0.84375 2.9375-0.41819-1.6546 0.46635-3.5442-0.25782-5.1016-1.3745-0.63365-1.8794 1.5409-1.9766 2.5078-0.26557 0.92704-0.24757 2.3935-0.82812 3.0391-0.46571-1.6476-0.70577-3.5856-0.27344-5.2891 1.0738-2.3178 4.5792-3.3631 6.4453-1.4453 1 0.82399 2.4851 2.3545 3.7656 1.0781 2.2224-2.105 2.0967-5.657 4.2777-7.8073 3.4833-4.7248 6.7421-9.6024 10.082-14.435l-0.0208 0.24913zm51.172 8.0078c1.5247 2.6415 4.2109 4.6327 5.1719 7.5625-0.17913 0.6106-1.3554 0.31469-1.8438 0.53125-2.1589 0.2822-4.7582 0.79621-6.2969 2.2031-1.2888-3.3411-3.0041-6.4875-5.0547-9.4219 2.533-0.154 5.2332 0.51996 7.6719-0.3125 0.19126-0.12017 0.33418-0.36552 0.35156-0.5625zm-66.555 3.8359c0.9943-0.32035 1.2664 0.54291 2.1641 0.61718 0.92975-0.0649 0.87302 0.70172 0.53125 1.3047-0.88164 1.891-1.3026 4.1531-2.7734 5.6875-0.77369 0.57003-1.2902-0.96314-2.0859-1.1016-1.5667-0.54789-3.551-0.12448-4.9609-0.42969 0.64287-1.2865 3.0282-1.3258 2.6484-3.1094 0.64561-1.4856 2.404-2.2769 3.9297-2.4609 0.25697-0.10676 0.23953-0.64261 0.54687-0.50781zm71.656 6.2578c1.5943-0.31058 3.3357 0.54636 3.6953 2.2031 0.52846 1.5217 0.9742 3.1623 0.94532 4.7422-1.0972-1.5228-1.477-3.6367-2.9297-4.8516-1.4019-0.10475-0.68425 1.8232-0.54137 2.6507 0.1691 0.91288 0.57136 2.0364 0.51793 2.8649-1.6831-1.4582-2.1421-4.3867-4.7188-4.7344-0.84816-0.26773-2.1784-0.20597-2.7422-0.82031 1.3987-1.6151 3.7601-1.9407 5.7734-2.0547zm-74.844 6.9766v-0.25zm0 0.11719c0.0879-0.48813 0.0722-0.32608 0 0zm0.0391 0.0703c0.11972-0.47693 0.11847-0.40723 0 0zm0.0391 0.0234c0.15411-0.43732 0.18184-0.40897 0 0zm0.0547 0.0547c0.18042-0.44346 0.22088-0.41838 0 0zm-0.0625 0.20312c0.41414-0.3899 0.66233-0.76239 0 0zm0.0703 0.0703c0.49764-0.44922 0.62733-0.65703 0 0zm0.0781 0.0703c0.47848-0.39079 0.68771-0.65836 0 0zm0.0781 0.0781c0.48675-0.31204 0.57132-0.51123 0 0zm0.0859 0.10156c0.57704-0.41406 0.65953-0.51833 0 0zm-0.34375-0.34375c0.35096-0.48536 0.60385-0.8351 0 0zm3.5469 0.0469c-0.7893 0.41448-0.36294-0.11555-0.42188 0.73437 0.78449 0.11014 0.49037 0.17434 1.1094 0.35938 0.53866 0.67024-0.0966 0.14964 0.67187 0.69531 0.61319 0.82599 1.255 1.6499 1.7422 2.5547 0.53781-0.23652 0.44698-0.0392 0.51563-0.21875 0.27363-0.19123-0.11292-0.72606-0.61719-1.0312-0.46862-0.46421-1.5236-1.5076-1.3424-1.5321-0.32021-0.18023-0.58697-0.56554-0.55315-0.63491-0.28939 0.0329-0.0208-0.28075-0.48728-0.24709 0.1219-0.21645-0.1121 0.0153-0.55469-0.65625 0.0167-0.0518-0.0534-0.0635-0.0625-0.0234zm-3.5703-0.0156 0.0156-0.0391zm0.45312 0.4375c0.5941-0.4044 0.67626-0.50438 0 0zm0.0937 0.13282c0.64036-0.43095 0.64446-0.45866 0 0zm0.0937 0.125c0.47389-0.23949 0.87952-0.57647 0 0zm1.2422 1.5469c0.46056-0.4694 0.58906-0.69886 0 0zm0.39844 0.25781c0.019 0.4185 0.68058-1.3362 0 0zm0.10156 0.0469c0.33596-0.45976 0.50811-0.87495 0 0zm0.0781 0.0469c0.22829-0.26722 0.70879-1.0831 0 0zm0.0937 0.0625c0.86352-1.0459-0.10692 0.11778 0 0zm0.27344 0.21875c0.49954-0.61797 0.47347-0.60369 0 0zm0.32813 0.25782c0.46831-0.50853 0.55451-0.67546 0 0zm0.78125 0.67187c0.52046-0.53887 0.5389-0.60731 0 0zm-7.9766-0.38281c0.78033 0.15877 1.5584 0.94492 2.3828 0.21094 1.1579-0.56725-2.2506-0.0811-2.3828-0.21094zm-0.0469 8e-3 0.0391-8e-3zm-0.0859 0.0156 0.0781-0.0156zm-0.0703 0.0234 0.0391-0.0156zm65.891 0.42188c-1.0356-0.21811-0.66673 1.3185-1.1232 1.9256-1.0034 3.3032-2.4507 6.8241-5.6111 8.5823-4.1914 2.568-9.3369 1.5865-14.008 1.5156-4.8051-0.28307-9.623-0.70177-14.211-2.25-3.8591-0.82893-7.6099-2.0118-11.136-3.826-1.0177-0.28298-2.596-1.5879-3.4034-0.39278 0.0503 1.4533 1.8948 2.0224 2.7969 2.9375 0.59966 0.61561 1.9342 1.1882 1.875 2.1406-1.4127 1.049-3.3505 1.4414-5.0938 1.6016-2.1291-0.28088-2.8863-2.818-4.7422-3.6797-0.75687-0.46176-2.5025-1.4182-2.8281-0.0625 0.74535 1.8453 2.6706 2.9733 4.0872 4.3029 2.4389 2.0439 6.4528 2.4638 8.9282 0.25416 1.0864-0.60184 2.0802-1.9617 3.3752-1.9555 0.76208 1.3877-0.89151 2.7455-1.3125 4-3.11 5.4998-7.3894 10.358-12.156 14.445-3.7856 0.2714-7.6443-0.084-11.398-0.45312-4.0294-1.2565-5.8033-5.7375-5.7445-9.6322-0.10166-3.9154-0.38535-8.0748 1.7757-11.54 0.85932-2.1766 3.0034-3.8326 3.2109-6.2578-0.0936-0.87672 0.18744-2.1428 1.3906-1.687 21.776 0.0103 43.552 0.0205 65.328 0.0308zm-56.844 0.71875c0.53156-0.54211 0.54225-0.5832 0 0zm4.2188 1.5703c-0.29727-5e-3 -0.24368-0.0771-0.10156 0.58594 0.52799 0.20934 1.2606 0.44568 0.67969-0.35156-8e-3 0.0872-0.2192-0.62487-0.57813-0.23438zm-2.1406 0.33594c0.51117-0.55953 0.52329-0.60419 0 0zm3.2422 0.6875c0.31848-0.65468 0.33175-0.76445 0 0zm0.98437 0.44531c0.33743-0.64719 0.35188-0.75267 0 0zm1.9922 0.96875c0.36045-0.70283 0.341-0.69321 0 0zm3.4062 1.6172c0.33176-0.71395 0.31248-0.70366 0 0zm2.5156 0.99219c0.26282-0.66957 0.27147-0.79131 0 0zm2.2422 0.67968c0.21386-0.75125 0.19789-0.74605 0 0zm35.633 0.33594c-0.34772-0.48784-0.64379-0.74262 0 0zm-28.039 1.2891c0.15429-0.76545 0.14017-0.7673 0 0zm30.797-0.0859c-1.3632 4.995-4.4647 9.2028-6.8984 13.719-1.313 1.8881-2.2541 4.5114-4.5469 5.4766-4.3833 0.8492-8.7625-0.84098-13.18-0.32031-4.2215-0.15834-8.4216-0.58687-12.594-1.1875 2.4186-2.9126 5.819-5.1065 7.5391-8.5391 0.50533-1.6356 0.20494-3.4305 0.61719-5.0625 7.3253 0.27534 14.856 2.5463 22.155 0.61942 2.7687-0.82873 5.5924-2.1945 6.9704-4.8772zm-24.102 0.67187c0.0368-0.74166 9e-3 -0.81669 0 0zm0.79688 0.0156c0.0379-0.77278 0.0238-0.78182 0 0zm2.7969 0.10937c0.0476-0.77293 0.0336-0.78138 0 0zm0.96875 0.0547c0.0572-0.773 0.0433-0.78094 0 0zm0.9375 0.0625c0.0669-0.773 0.053-0.7805 0 0zm-17.062 1.0625c2.9046 0.56971 5.2844 4.38 3.1113 6.8955-2.7342 4.1367-6.618 7.4349-10.314 10.675-1.543 1.0742-3.6777 0.65696-5.4219 0.4375-0.66569-0.1411 0.30615-0.95168 0.42969-1.2422 2.0761-2.3736 4.5236-4.4626 6.0162-7.2802 2.1845-2.8939 4.053-6.0502 5.7259-9.2433 0.11326-0.13844 0.25338-0.30158 0.45312-0.24219zm53.219 3.3984c1.4074-0.21085 1.8582 1.4404 1.6875 2.5234 0.43764 3.9707 3.8354 6.8392 5.1328 10.477-3.6948-1.9928-7.7287-3.9039-12.055-3.5169-1.6667-0.10781-3.3289-0.0898-4.7236 0.96362-3.6663 1.7754-7.3372 4.0916-11.573 3.9595-1.1833 0.30036-1.2862-0.19415-0.53125-1.0234 0.87695-1.3714 1.9838-2.5728 2.8984-3.9141 0.33923 1.4025 2.1198 0.14621 2.9531-0.23438 5.1863-2.7296 8.8819-8.2326 14.945-9.1719 0.41961-0.0635 0.84244-0.0563 1.2656-0.0625zm-5.4062 12.352c0.74425 0.18255 2.0878-0.33727 2.5625 0.36719 0.10003 0.84716 0.1222 2.1116-0.36718 2.6875-0.25148-0.87795 0.1611-2.6455-1.25-2.5781-0.98861 0.27902-1.1013 1.748-1.5156 2.25-0.8473-0.65493-1.1341-2.5358-2.4062-2.2188-0.6232 0.90262 0.26789 2.1602-0.10937 3.1016-0.98205 0.26143-2.3792 0.38332-2.6641-0.88281-0.6755-1.1841 1.1165-1.8246 1.9297-2.125 1.2304-0.40292 2.5252-0.57028 3.8203-0.60156zm5.6719 0.74219c0.92732 0.15827 0.19334 0.0936-0.17969 0.64843-0.0573 0.89065-0.31802 2.2821-0.78906 0.92969-0.3257-0.69976 0.16036-1.6176 0.96875-1.5781zm0.88281 0.38281c0.39757 0.27492 0.92071 1.1178 0.72656 1.5-0.25779-0.44759-0.50125-1.3737-0.72656-1.5z" opacity=".63942"/>
   <path d="m192.49 393.63c-3.8181 5.4015-7.3853 11.025-11.414 16.227-1.9501 2.0891-1.9894 5.3578-3.9062 7.4297-0.83853 0.33261-1.5116-1.0115-2.1953-1.3516-3.1392-2.8647-9.2035 0.0723-8.5547 4.3906 0.21173 1.5094-0.17465 3.5764 1.1875 4.6094 1.3372 0.82761 2.0772-1.253 2.2734-1.9141-0.21019 1.3923 1.9813 2.6061 2.5156 0.96875 0.63297-1.5394 0.59101-3.3378 1.5078-4.75 1.0048 1.6794 3.3247 3.0711 5.2109 2.0938 0.93228-1.6285 1.0899-3.6203 2.1859-5.2096 2.9928-5.1142 7.3221-9.3285 10.233-14.514 1.4773-2.1086 2.5469-4.6025 2.1123-7.2281 0.10705-0.68647-0.55834-1.349-1.1558-0.75152zm-2.4766 6.8359c-2.3472 3.8475-5.163 7.3925-7.7734 11.055 2.5408-3.6806 5.3362-7.5087 7.7734-11.055zm-18.227 16.219c0.71302-0.0244 1.544 0.3087 2 0.71875-1.1675 0.13207-1.7356 1.393-2.1016 2.3672 0.16265-1.0849-0.57422-2.4966-1.8359-2-1.2538 0.65346-1.1711 2.3654-1.5469 3.5469-0.21966-1.6692 0.21436-3.6731 2.0234-4.2656 0.45747-0.21713 0.95105-0.35696 1.4609-0.36719zm6.375 2.1016c-0.10583 0.67064-0.40579 1.4275-1.1016 0.82031-0.45649-0.23958-1.4253-0.88529-0.46094-0.5 0.52952 0.31116 1.5004-0.38443 1.5625-0.32031z" opacity=".63942"/>
   <path d="m211.3 364.23c-4.629 0.0483-8.3826 3.8221-9.6094 8.0703-0.31839 0.81485-1.0007 2.8324 0.5625 2.3125 1.4174-1.8599 4.2866-1.9622 5.9062-0.38282 0.149 0.44963-0.99638 0.33919-1.3125 0.36719-1.7751-0.38344-3.6922 0.11091-4.7656 1.6562-2.185 2.8359-2.2361 6.683-2.3203 10.117 0.0756 4.6555 3.4376 9.2217 8.1562 9.9844 3.8868 0.53785 8.056 0.34558 11.695-1.2109 3.0804-1.6003 5.1258-4.9869 4.8276-8.4842 0.10717-3.6778 4e-3 -7.8983-2.5542-10.797-1.2996-1.3063-3.3168-0.66752-4.8359-1.1953-0.20924-0.86632 1.2875-1.0027 1.8828-1 1.4722 0.12702 2.8994 0.56465 4.3125 0.92969 1.3619-0.40521 0.30847-2.1234 0.0703-3.0078-1.9605-4.636-7.0518-7.5416-12.016-7.3594zm-5.1875 13.922c0.48815 0.10002 0.92717 0.33919 0.13281 0.30469-0.65517 0.0364-1.5446 0.50036-1.9141 0.70312 0.49068-0.46824 1.1018-0.90601 1.7812-1.0078zm12.859 0.15625c0.94203-0.0861 2.0829 0.61268 2.4688 1.2109-1.2718-0.63866-3.2013-0.75078-4.1797-0.1875 0.3011-0.65208 1.0143-1.0109 1.7109-1.0234zm-10.867 6.7578c0.587 0.30997 1.2521 0.74509 0.15625 0.52344-0.38919 0.1595-0.2715-0.54669-0.15625-0.52344zm7.5547-0.0234c0.0791 0.51089-0.25912 1.1026-0.76562 0.82032 0.35707-0.16796 0.51294-0.55791 0.76562-0.82032zm-3.9141 3.5938c0.91287 0.0504 2.3969-0.0826 3.0156 0.34375-1.3094 1.423-3.8509 1.2253-5.1328-8e-3 0.6515-0.29505 1.4122-0.30182 2.1172-0.33594z" opacity=".63942"/>
   <path d="m225.94 391.61c-0.42968 1.5917 0.62609 3.2525 0.76591 4.8603 0.83565 4.0672 1.9894 8.1319 4.4294 11.554 2.5958 3.9455 5.8259 7.9234 6.0137 12.843 0.32203 2.9529-0.53875 5.806-1.3574 8.5869-0.093 0.78432 1.2035 0.45774 0.67188 1.2812-1.2533 5.3103-3.441 10.31-5.8984 15.172-0.23151 0.95769 0.93683 1.0156 1.4609 0.6875 0.53772 0.78417-0.26662 2.7839 1.2891 2.4766 3.0163-2.4155 6.0952-4.762 9.0547-7.2422 3.0479-2.083 6.7915-2.7536 10.164-3.9688 1.8692-2.177 2.5642-5.1322 3.3615-7.8372 0.47186-2.3531 0.63745-4.8569 0.20101-7.2175-0.94853-1.1938-2.239 0.4512-3.3672 0.46875-2.021 0.7338-4.1397-0.12944-5.5859-1.6016-1.2319-0.86347-2.4844-2.0876-4.0391-2.1953-1.2266 0.75942 0.27199 2.0804 0.46875 3.0781 0.19514 0.43343 0.3547 1.7984-0.42969 1.0781-3.3359-2.3471-3.0085-6.912-4.7734-10.234-2.534-5.2581-6.6204-9.7676-8.0149-15.519-0.82228-2.3326-1.5183-5.3716-3.9695-6.4498l-0.23184 0.0935zm26.281 38.969c-1.5755 0.99736-3.285 1.7691-4.8203 2.8281 1.3681-1.2786 2.9473-2.4546 4.8203-2.8281zm-13.844 1.4062c-0.31288 4.3458-1.1337 8.9093-3.9062 12.414 1.7078-3.1083 3.1248-6.3973 3.5156-9.9531 0.10878-0.63453 0.39617-2.6414 0.39063-2.4609z" opacity=".63942"/>
   <path d="m225.84 391.37c-0.78207 0.92349 0.35512 2.209 0.33024 3.2747 1.0223 4.8386 2.1233 9.8233 5.144 13.863 2.6455 3.9651 5.9498 8.076 5.6508 13.104 0.0776 2.5786-0.41816 5.0684-1.1094 7.5156-0.0705 0.79145 1.0473 1.0673 0.41593 1.9144-1.2736 5.071-3.2608 10.072-5.7909 14.64-1.395 0.47358-1.7038 2.3399-2.6394 3.3638-1.1284 1.9653-2.8843 3.5966-3.845 5.6206 0.46818 1.4519 2.3948 0.47966 2.9766-0.42187 1.8432-2.1971 3.301-4.6852 4.9609-7 0.0644-0.43286 0.0959-0.67976 0.23437-0.14063 0.29759 0.94271-0.90729 1.1463-1.1406 2-1.3384 2.0802-3.4261 3.8269-4.0312 6.2891 0.50588 1.3522 2.4387 0.78519 3.5613 0.80325 4.3731-0.16931 8.0616-2.6732 11.939-4.3658 4.3996-1.5886 9.2299-0.0189 13.234 1.9922 1.0566 0.3051 2.1848 1.7609 3.2891 1.0703 0.81233-2.0312-1.091-3.923-1.9739-5.5991-1.5558-2.3345-3.2735-4.837-3.1355-7.7602-0.27642-1.6555-2.0061-2.5721-3.5938-2.2188-6.0306 0.43933-10.009 5.5638-14.766 8.5938-0.40133 0.16805-1.5336 1.1349-1.6632 0.87494 2.893-2.3734 5.8252-4.683 8.7734-6.9766 3.0924-2.2245 7.0796-2.5111 10.359-4.2891 1.6199-2.3884 2.356-5.3125 3.0938-8.0781 0.26328-2.2406 0.69874-4.6897-8e-3 -6.875-1.0954-0.84688-2.3613 0.61346-3.5625 0.57812-1.6756 0.52185-3.4675 0.22076-4.7422-1.0234-1.1751-1.0422-2.4456-2.0182-3.8828-2.6484 0.0624-0.90581-1.2003-0.9543-1.3516-1.8359-0.30932-0.72821-1.0983-1.712-0.79687-2.5 2.2542-1.4072 4.9867-1.3875 7.4688-2.0469 1.6133-1.0198 0.27516-3.0664-0.50782-4.1719-1.9497-2.5393-3.9724-5.0137-5.6328-7.7578-2.6361-3.6698-6.0528-7.7701-10.93-7.9922-1.9509-0.11167-2.0848 2.4961-1.6875 3.8672 0.73752 2.5536 1.8105 5.1156 3.3828 7.25 0.40281 1.7257 2.0301 3.2188 2.8323 4.906 2.2081 3.8414 3.4387 8.2452 5.6598 12.078 0.94531 0.0929 1.3259 1.5244 1.3359 2.4219-0.60687 0.18307-1.3577-0.71757-1.7578-1.2031-2.1429-3.27-2.1446-7.4661-4.3064-10.79-2.4902-4.5747-5.9847-8.6478-7.186-13.82-0.84127-2.4199-1.5481-5.6789-4.2576-6.6085l-0.23976 0.0708zm6.5391 3.6719c4.2426 0.59724 7.0535 4.2468 9.4141 7.4609-2.3353 0.0574-4.6719 0.0335-7.0078 0.0391-1.0099-2.4125-2.7098-4.7718-2.4688-7.5078zm11.641 10.734c1.3164 1.9306 3.198 3.6448 3.9766 5.8516-2.4311 0.23164-5.0137 0.57114-7.0781 1.9844-1.189-2.6795-2.811-5.5396-4.1641-7.8984 2.2553-0.24156 4.6522 0.17921 6.8203-0.53907 0.14844 0.20052 0.29688 0.40105 0.44532 0.60157zm7.4609 25.141c-0.94101 0.56261-1.8961 1.0556-2.8594 1.5625 0.93006-0.69734 1.9032-1.3448 3.0312-1.6641zm-14.539 8.5156c-0.42624 1.3351-0.98431 2.6223-1.75 3.7969 0.62379-1.2974 1.2992-2.574 1.7891-3.9297zm13.773 1.7422c1.5446-0.2651 1.4118 1.6462 1.6641 2.6562 0.69322 3.1343 2.7694 5.6702 4.2656 8.4219-3.3532-1.6394-6.9617-3.0726-10.773-2.7188-1.8075-0.0373-3.6732-0.21983-5.1885 0.97792-3.5298 1.7412-7.1952 3.9641-11.218 3.858 0.78832-1.1341 1.6314-2.4998 2.6797-3.2969 2.0569 0.30965 3.7564-1.4248 5.4141-2.3879 4.1634-2.7605 7.867-7.1845 13.156-7.5105z" opacity=".63942"/>
   <path d="m211.53 364.16c-3.7565-0.0244-7.1431 2.3396-8.8516 5.6172-0.77358 1.4102-1.5739 3.0231-1.3672 4.6484 1.2522 0.61397 2.158-1.2498 3.5078-1.1797 1.0963-0.0596 2.4752 0.26811 3.1875 1.0469-1.7906 0.45716-4.1318-0.66739-5.2963 1.2133-2.8642 2.6825-2.8872 6.9402-3.0787 10.576-0.22711 5.3313 4.2685 10.248 9.5703 10.602 3.6647 0.23808 7.5758 3e-3 10.891-1.6797 2.649-1.6014 4.4342-4.4535 4.4766-7.5781 0.25236-3.9524 0.0319-8.4205-2.5938-11.594-1.2831-1.4649-3.526-0.57-4.9609-1.3828 1.0839-0.95906 2.8789-0.37996 4.1797-0.28906 0.97467 0.0159 2.5402 1.5334 2.8594 0.0234-0.59289-6.0506-6.7217-10.231-12.523-10.023zm-5.5156 14.133c0.68003-0.10536-1.0319 0.38994-1 0.42969 0.3043-0.20378 0.64065-0.38613 1-0.42969zm12.984 0.14844c0.66976-0.086 1.941 0.51095 1.9766 0.82031-1.1562-0.48287-2.5707-0.7139-3.6406-8e-3 0.28696-0.58522 1.0694-0.77744 1.6641-0.8125zm-10.727 6.8516c0.73596 0.22793 0.45865 0.52599 0 0.21094 0.0266-0.0284-0.0698-0.23871 0-0.21094zm7.2031 0.16406c0.12186 0.60719-1.0477 0.47622-0.19531 0.125 0.0465 0.01 0.22488-0.27882 0.19531-0.125zm-3.6406 3.3047c0.93318-5e-3 1.8666 0.0168 2.7734 0.20313-1.3033 1.2593-3.7232 1.1477-4.8516 0 0.67029-0.18349 1.3732-0.16996 2.0781-0.20313z" opacity=".63942"/>
   <path d="m232.37 394.58c-1.2612 0.66835-0.35107 2.52-0.10063 3.5887 0.64636 1.7116 1.2461 3.5795 2.4366 4.966 2.2198-0.0672 4.5047 0.24449 6.6953-0.14844 1.3455-0.71782-0.0924-2.1575-0.71964-2.8519-2.1321-2.5688-4.7867-5.3257-8.3116-5.5543z" opacity=".63942"/>
   <path d="m242.95 404.73c-2.138 0.41908-4.4602 0.13371-6.5391 0.72657-0.24676 1.3694 1.2136 2.4922 1.645 3.7675 0.98357 1.5428 1.5221 3.4605 2.7222 4.8419 2.0841-0.77581 4.2348-1.5791 6.4922-1.8516 1.0913 0.0851 1.4787-1.1362 0.71875-1.8516-1.2973-1.9323-2.4458-4.1418-4.3359-5.5469-0.22103-0.098-0.46616-0.10711-0.70313-0.0859z" opacity=".63942"/>
   <path d="m232.59 394.49c-1.5478 0.39188-0.77772 2.4149-0.48438 3.4609 0.66199 1.7652 1.2446 3.692 2.3906 5.1719 1.993 0.15652 4.2883-0.15483 6.125 0.15625 0.41924 0.94743 2.0846 0.82371 2.7188 0.17187 0.37665-0.93277-0.62886-2.2603-1.5938-2.1641-2.2763-2.9352-5.0917-5.9991-8.8672-6.8047-0.0964 2e-3 -0.19327-6e-3 -0.28906 8e-3z" opacity=".63942"/>
   <path d="m236.22 404.45c-1.0871-0.20159-1.5837 1.0478-0.75781 1.7109 0.29298 0.55908 0.9239 1.0175 1.4141 1.0391 1.3198 2.2234 2.1384 4.8613 3.9531 6.7188 1.2569 0.25469 2.4046-0.85269 3.6719-0.97656 1.2412-0.60222 3.077-0.10404 3.9688-1.2656-0.15333-1.896-1.8361-3.3054-2.7827-4.8642-0.87883-1.0186-1.5788-3.0249-3.2485-2.1046-1.4185 0.0579-3.1378 0.53256-4.3359-0.22657-0.62513-0.0516-1.2563-0.0648-1.8828-0.0312z" opacity=".63942"/>
   <path d="m248.55 413.73c-2.0267 0.29304-4.6017 0.45647-5.8906 2.2578-0.26226 1.5645 1.943 1.4197 2.9292 1.7749 2.2457 0.48881 2.7372 3.1129 4.3599 4.3657 1.5574-0.0342 0.58187-2.0082 0.54688-2.9062-0.0323-0.5058-0.3723-1.8785-0.0469-1.8359 0.95271 0.94657 1.2821 2.4386 2.2266 3.4297 1.2964 0.4642 1.1687-1.386 0.89063-2.1328-0.43299-1.9278-0.98235-4.5056-3.3359-4.8359-0.54808-0.13448-1.1187-0.1398-1.6797-0.11719z" opacity=".63942"/>
   <path d="m248.25 413.72c-2.0862 0.18265-4.7523 0.45972-5.8516 2.5078 0.0876 1.4652 2.2218 1.1762 3.1953 1.6562 2.2721 0.46377 2.6377 3.3223 4.4531 4.3828 1.4882 0.10875 0.79882-2.0064 0.64063-2.8438-0.0754-0.62168-0.42878-1.6174-0.32813-2.0391 0.4178 0.77567 1.592 1.6677 0.89844 2.4766 0.38186 1.1682 0.94645 3.1611 2.5156 2.9609 1.3647-0.62748 0.66941-2.5378 0.67968-3.7109-0.0872-0.63719-0.18424-1.7306-1.0391-1.6797-0.39824-1.6721-1.5504-3.6823-3.3821-3.8086-0.594 0.0326-1.188 0.0651-1.782 0.0976z" opacity=".63942"/>
   <path d="m250.73 440.8c-4.8362 0.0271-8.3957 3.8462-12.135 6.3742-1.9679 1.3354-3.879 3.1696-6.3412 3.3602-1.514 0.79471-2.6548 2.349-3.2656 3.8828 1.0379 1.0582 2.8601 0.20643 4.153-0.0501 3.4533-0.98365 6.5705-2.9216 9.8626-4.2155 3.8892-0.10097 7.882-0.0433 11.43 1.7351 0.75392 0.43756 2.5125 0.84586 2.1874-0.56323-1.4964-2.9502-3.3764-5.7757-4-9.0938-0.18585-0.93945-0.86879-1.6272-1.8906-1.4297z" opacity=".63942"/>
   <path d="m250.54 440.53c-5.4856 0.61549-9.4574 5.0438-13.907 7.8957-1.4397 1.0365-3.0194 1.9583-4.7957 2.1512-1.2542 0.89103-2.2946 2.2671-2.8359 3.6953 0.39827 1.34 2.1624 0.54704 3.1484 0.46875 3.7301-0.72311 6.9711-2.8586 10.383-4.3203 4.3309-0.67174 8.864-0.10248 12.719 2.0469 0.42291 0.94371 1.7386 1.7012 2.7475 1.5314 1.0359-0.71931-0.24339-2.0728-0.55215-2.9455-0.17669-0.907-1.1849-0.67568-1.4704-1.2758-1.546-2.4885-2.8526-5.1253-3.3499-8.0211-0.29366-0.89004-1.1905-1.318-2.0859-1.2266z" opacity=".63942"/>
   <path d="m232.89 435.55c-1.4679 0.90363-2.6488 2.3954-4.3281 2.9688-6.4248 2.7007-13.594 1.1291-20.272 0.49088-1.4125-0.0245-2.882-0.53457-4.259-0.20963-0.67156 2.4162-0.0808 5.3586-2.0961 7.2792-1.6895 2.3-4.1838 3.9433-5.6852 6.3458-0.16157 1.4637 1.9424 1.0809 2.8438 1.3594 6.5562 0.7693 13.167 0.82019 19.742 1.3203 2.1046 0.15573 4.5149-0.15255 5.7422-2.1016 3.4329-4.9057 6.3375-10.216 8.8125-15.664 0.27606-0.6271 0.65872-1.8568-0.5-1.7891z" opacity=".63942"/>
   <path d="m235.21 428.75c-0.80674 2.3509-2.1483 4.552-3.2734 6.7734 0.40098 1.0094-1.1029 1.4551-1.75 2-4.9758 3.1236-11.187 2.3697-16.777 1.9267-3.021-0.2419-6.1058-0.87762-9.1609-0.73917-1.0571 0.72463-0.45534 2.4645-0.79688 3.5781-0.10703 3.1082-2.9669 4.9585-4.7864 7.1316-0.49418 0.94093-1.1757 0.74929-1.9245 1.095-0.75134 0.85387-2.298 1.8484-1.8516 3.1406 0.6349 0.80599 1.9474 0.51623 2.5938 0.0547 7.2083 0.94772 14.533 1.0267 21.789 1.5547 2.1208 0.077 4.4474-0.48884 5.5719-2.4656 3.3507-4.9506 6.366-10.155 8.7406-15.636 0.34088-0.54243 1.0724-0.90761 1.1562-1.6953 0.46438-1.7896 1.3891-3.4148 2.0938-5.0625 0.0435-0.75712-0.66098-2.3354-1.625-1.6562z" opacity=".63942"/>
   <path d="m208.19 424.91h-25.188c-1.5258 0.66214 0.44633 1.7808 1.1562 2.2812 6.3811 4.1265 14.041 5.2732 21.384 6.6838 3.7 0.44715 7.4079 1.3515 11.147 1.1522 4.2003-0.56899 8.5566-0.82994 12.578-2.2578 2.4614-1.5308 3.2238-4.602 4.6641-6.9531 0.0213-1.6837-2.4757-0.61449-3.5547-0.91313-7.3958 2e-3 -14.792 5e-3 -22.188 7e-3z" opacity=".63942"/>
   <path d="m211.45 362.68c-5.4852 0.16803-10.545 4.343-11.594 9.7656-1.2561 3.9174-1.9356 7.9726-1.8322 12.093 0.18044 1.5153-0.0374 2.8073-1.6664 3.2569-4.588 2.4675-10.46 1.0793-14.748 4.3433-5.6607 3.8303-8.8995 10.196-11.448 16.283-2.1894 3.5446-3.7477 7.5516-4.5703 11.633-0.0877 3.1975 1.2492 6.5767-0.32031 9.6094-1.0484 2.0266-2.9178 3.5873-3.3672 5.9297-1.5274 4.0955-1.089 8.5905-0.70313 12.852 0.76882 2.8948 1.6638 6.1183 4.0859 8.0781 4.0112 1.9484 8.663 1.289 12.982 1.7166 4.0517-0.0111 8.2513 0.75294 12.214-0.33375 1.2608-0.37026 2.0776-1.7192 3.5156-1.4219 8.8573-0.0574 17.718 0.22988 26.546 0.93446 5.6685 0.31564 11.4-0.33742 17.032 0.26086 1.7904 0.10183 2.801 2.2472 4.6946 1.692 5.8427-0.083 11.661-0.73916 17.501-0.7623 2.1323-0.022 2.9409-2.6803 1.9609-4.3125-1.8609-3.7596-4.8142-7.0043-6.1081-11.023-0.1699-3.8598 0.20169-7.7625 1.8489-11.303 1.2582-2.7484 1.1312-6.0179 0.29824-8.8614-0.34955-0.75469-0.74163-1.9651-1.7578-1.9297 0.46145-2.476-0.37932-4.9128-1.8516-6.8906-4.1419-6.0459-8.119-12.254-12.773-17.914-2.4953-3.028-6.2268-4.501-9.9219-5.4609-1.6506-0.68861-3.6195-1.1825-4.9453-2.3672-0.31512-3.4102 0.0156-6.8809-0.79688-10.227-0.3624-3.2794 0.12064-7.059-2.2656-9.7344-2.8277-3.5983-7.3313-6.1939-12.008-5.9062zm-19.156 33.609c-1.06-0.36641-0.52283 1.5236-1.1875 1.6562-0.13629 1.1529-1.1981 2.4404-1.8162 3.561-1.9343 2.9756-4.0952 5.7848-6.2306 8.6343-0.31663-0.24265-0.32342 0.92048-1.0558 1.0472 0.0477 0.3032-0.21842 1.0134-0.80363 1.1325 0.27345 0.63026-1.0016 1.636-1.2607 2.4344-0.77043 1.2849-1.5271 2.8089-1.8486 4.1437 0.767 0.45059-0.33807-0.17054 0.78125-0.69532 1.8615-2.4008 2.4083-5.5806 4.3594-7.9453 1.2209-1.6762 2.4032-3.361 3.5938-5.0547 0.21536 0.78927 0.55167-1.4821 1.4638-2.1032 1.0046-1.2467 0.94369-0.94121 1.2177-1.237-0.0671-0.0852 0.47955-1.3587 0.87756-1.4135 0.0963-1.0974 0.93581-0.84982 0.76156-1.4607 0.32676-0.2931 0.8678-1.398 1.5466-2.192 0.26868-0.21246-0.26275-0.36284-0.39844-0.50781zm33.906 3.0469c-0.13522 0.0467-0.78659 0.24926-0.33593 0.375 3e-3 0.28771 0.68042 0.2455 0.77343 0.0625 0.55592-0.22707-0.43462-0.35979-0.4375-0.4375zm-33.969 1.5391c-0.28219 0.76123-1.0172 1.475-1.3203 2.0938 0.40653 0.67937 1.1938 0.76021 1.3828-0.15625 0.24519-0.63944 1.4749-1.3734 0.45313-1.7812-0.1279 0.0412-0.42146-0.2802-0.51563-0.15625zm36.695 5.1719c-0.63889 0.0965-0.5622 0.64959-0.19532 1 0.68956-0.0608 0.5257 0.16832 0.85157-0.47656-0.22635-0.25145-0.15114-0.96296-0.65625-0.52344zm-51.453 2.5703c0.78004 0.0318 1.8498-0.0679 2.4219 0.5-0.83452 2.1672-1.4569 4.5922-3.0078 6.3594-0.96305 0.62244-1.2483-1.0702-2.2188-1.0469-1.4781-0.44096-3.0442-0.16248-4.5547-0.35157 0.61008-1.2787 2.9144-1.2163 2.6328-3.0078 0.40094-1.7953 2.7222-2.2706 4.2812-2.4219 0.14914 3e-3 0.29628-0.0354 0.44531-0.0312zm31.188 1.25c-5.5524 0.12204-10.563 2.985-14.844 6.2578-0.30072 0.41284 0.69711 1.4427 1.038 0.5517 4.0421-3.605 9.3117-6.4193 14.899-5.997 5.626 0.0795 10.66 3.2952 14.641 6.9766 0.60532-0.39884 0.94509-1.2086-0.0234-1.4297-4.2122-3.3031-9.0565-6.381-14.602-6.3672-0.36976-0.01-0.73999-0.0161-1.1094 8e-3zm-24.445 1.8984c-2.4781 3.4316-4.8412 7.9994-3.1484 12.273 0.29364 0.59847 0.81563 1.6537 1.3281 1.1875 0.18218 0.10599 0.22037-0.74274-0.30469-1.0938-1.7055-2.9137-0.272-6.4152 1.0859-9.1797 0.68188-1.4264 1.7744-2.5814 2.9688-3.5938-0.86744-1.3186-1.1881-0.55378-1.9297 0.40625zm47.383-0.60937c-1.0086 0.78465 1.0666 1.6624 1.4297 2.5547 1.2366 1.5204 1.7955 3.502 1.6641 5.4375 0.65271 0.34195 1.3437-0.0976 1.0234-0.89063-0.59494-2.7184-2.0233-5.1757-3.5938-7.4453-0.17448 0.11458-0.34896 0.22917-0.52344 0.34375zm-34.055-0.21094c-0.91426 0.5876-1.8392 1.2128-2.8281 1.6719 0.0284 0.63095 0.65412 1.3478 1.1797 0.58593 0.74816-0.47564 1.5048-0.97812 2.2969-1.3203-0.025-0.42229-0.28012-0.9013-0.64844-0.9375zm-3.9609 2.6641c-0.15178 0.70884-1.6319 1.2984-0.76563 1.9297 0.8335 0.72659 0.99954-0.96258 1.6953-1.2734-0.23593-0.4134-0.47031-0.67056-0.92968-0.65625zm47.336 0.0625c-0.27268 0.33669-0.47737 7.8e-4 -0.44531 0.67969 0.0121 0.60893 0.66323-0.21622 0.57813-0.14062 0.0204 0.0603 0.13712-0.45318-0.10938-0.58594zm-69.164 3.1719c0.0182-0.74049-0.0112-0.81812 0 0zm0.16406 0c0.054-0.6887 0.0155-0.87476 0 0zm-0.42187 8e-3c0.098-0.51014-0.0903-0.81998 0 0zm0.59375 0c0.0475-0.77293 0.0336-0.78138 0 0zm0.11719 0c0.16587-0.49675 0.0523-0.81216 0 0zm0.10156 0.0156c0.2285-0.47146 0.12697-0.81485 0 0zm-1.2656 0.0391c0.0498-0.49642-0.17393-0.8157 0 0zm1.4141-8e-3c0.20718-0.6825 0.20993-0.81718 0 0zm-1.5938 0.0547c-0.14818-0.73223-0.19542-0.79092 0 0zm1.7188-0.0234c-2.0688 5.0724-0.65439 1.613 0 0zm-1.9453 0.0781c0.0328-0.35178-0.31507-0.90608-0.0306-0.11762zm2.0781-0.0312c0.58191-1.2276-0.0726 0.14138 0 0zm-2.2578 0.0937c-0.1903-0.64059-0.30897-0.83462 0 0zm2.4062-0.0312c0.2865-0.46549 0.44109-0.93229 0 0zm-2.6016 0.10938c-0.11491-0.52278-0.34001-0.72341 0 0zm2.7812-0.0156c0.35448-0.65378 0.36919-0.72468 0 0zm-2.9453 0.10156c-0.25616-0.60567-0.41854-0.81254 0 0zm3.1172-0.0156c0.62979-0.96087 0.0742-0.10774 0 0zm-3.2969 0.10937c-0.16922-0.50026-0.43408-0.68124 0 0zm-0.14062 0.10157c-0.37142-0.61336-0.47985-0.70119 0 0zm4.0312-0.11719c-0.72762 0.11007 1.0309 0.80036 1.2891 1.1484 0.50952 0.44326 0.0903 0.28093 0.89844 0.48437 0.0826 0.19531 0.22161 0.58987 0.42969 0.10938-0.79652-0.51839-1.277-1.4694-2.2422-1.7031 0.0256 0.1039-0.4242-0.44757-0.375-0.0391zm-4.2031 0.23437c-0.21225-0.46968-0.52174-0.63069 0 0zm-0.125 0.11719c-0.35297-0.47809-0.65901-0.73363 0 0zm-0.14062 0.13281c-0.45657-0.55406-0.50476-0.48221 0 0zm-0.13281 0.14063c-0.68457-0.69832-0.24594-0.25356 0 0zm-0.10157 0.13281c-0.48894-0.42396-0.73992-0.54863 0 0zm-0.11718 0.16406c-0.26656-0.23372-1.0555-0.71847 0 0zm-0.10938 0.17188c-0.513-0.37064-0.79625-0.48549 0 0zm-0.10156 0.17969c-0.38465-0.33619-0.74042-0.35841 0 0zm-0.0781 0.17187c-0.48822-0.30669-0.71343-0.28881 0 0zm8.7734 0.40625c-0.16299-0.74498-0.18353-0.77148 0 0zm-8.8438-0.22656c-0.72613-0.29357-0.71465-0.27444 0 0zm-0.0781 0.22656c-1.1105-0.45149-0.0598-0.0279 0 0zm3.25-0.0781c-0.54036 1.0632-0.53264 2.3045-1.0078 3.3828 0.59141 0.42656 0.45165 0.29003 1.0469 0.0703-0.0602-1.1735 0.17826-2.3631 0-3.5312zm-0.48438 3.6641c-0.0349 0.0138 0.0618 0.0452 0 0zm6.6719-3.6562c0.61787 0.22758 0.9154 0.32073 0 0zm-1.7656 0.58594c0.41857-0.53579 0.5614-0.80536 0 0zm-7.7266-0.32032c-0.46217-0.18642-1.0632-0.26938 0 0zm7.9141 0.45313c0.57398-0.7881 0.32701-0.53233 0 0zm0.17188 0.10937c0.39534-0.57662 0.46847-0.83184 0 0zm1.2734-0.48437c0.7369 0.30001 0.81775 0.2593 0 0zm-9.4062 0.13281c-0.63921-0.17002-0.88513-0.17407 0 0zm8.2969 0.44531c0.3712-0.59851 0.43005-0.85095 0 0zm1.0625-0.46875c0.75753 0.37972 0.71479 0.22918 0 0zm-0.89844 0.55469c0.2855-0.4204 0.42449-1.0876 0 0zm0.85156-0.48437c-0.19176 1.0136-0.0538-0.13474-0.0141 0.33262 0.0204 0.25956 0.36552 0.17832 0.23634-0.0104-0.27978-0.23407 0.61769 0.0338-0.22221-0.32223zm-0.70312 0.54687c0.28014-0.63468 0.34546-0.91321 0 0zm0.14062 0.0547c0.32632-0.53289 0.21649-1.1176 0 0zm0.14063 0.0312c0.1556-0.65754 0.17953-0.96647 0 0zm0.125 0.0234c0.18396-0.60945 0.0433-1.0305 0 0zm0.125 8e-3c0.0731-0.69216-0.0164-0.96638 0 0zm-9.1875-0.47656c-0.55004-0.1641-0.75975-0.0952 0 0zm-0.0234 0.22656c-0.73869-0.10251-0.80324-0.0801 0 0zm-0.0156 0.25c-0.50756-0.0953-1.0772-0.0624 0 0zm-8e-3 0.0781c-0.53231 0.34807-0.25493 0.11308-0.14843 0.69532-0.37987 0.11015-0.12896 0.31363-0.17969 0.875-0.13088 0.0396-0.10811 0.91669-0.40625 1.3516 0.49671 0.54543 1.5844 0.20191 1.0018-0.64433-0.19807-1.3989-0.0958-0.81321-0.26739-2.1135-2e-3 -0.0611 0.029-0.26457 0-0.16407zm67.195 0.0937c-1.0218-0.15473-0.28347 1.1753-1 1.5859 0.17811 0.67575 1.2787 0.74197 1.1406-0.125 0.0602-0.71764 0.83318-1.1942-0.14062-1.4609zm-61.68 0.91407c-0.0958-0.22916-0.0305 0.2857-0.13966 0.25989-0.54216-0.11068 0.23158 0.5305 0.32716 0.18542 0.34804-0.46957-7e-3 0.0264 0.1921-0.36956-0.41998 0.25583-0.43416-4e-3 -0.29366-0.0836-0.01-0.24137-0.088-0.0743-0.0859 8e-3zm0.13281 0.64062c0.83841-0.64054 0.32307-0.24641 0 0zm3.2578-0.20312c-0.42288 0.0672-0.25344-0.0145-0.11718 0.60156 1.4856 0.76045 2.3069 2.5494 3.5391 3.4609 0.25954-1.1505-1.5106-2.1562-1.7891-2.6562-0.44739-0.52827-0.57844-0.52168-1.0938-1.1641-0.22601-0.0751-0.25008-0.67927-0.53907-0.24218zm-3.125 0.38281c0.52704-0.31701 0.78013-0.57473 0 0zm-0.17968-0.0859c-1.023-0.40716-0.17885-0.0747 0 0zm0.34375 0.3125c0.6206-0.41414 0.6643-0.45848 0 0zm-0.39063-0.125c-0.634-0.19572-0.87233-0.20745 0 0zm0.5625 0.375c0.61644-0.37126 0.69582-0.46158 0 0zm-0.64844 0.0234c-0.75872-0.18405-0.75666-0.16906 0 0zm1.7969 1.3516c0.45144-0.47653 0.57823-0.71087 0 0zm0.34375 0.20313c0.44997-0.0333 0.32961-0.9955 0 0zm0.14062 0.0859c0.4222-0.62011 0.43718-0.67968 0 0zm0.35938 0.23438c0.3315-0.35549 0.63792-0.90544 0 0zm0.21094 0.15625c0.47229-0.58667 0.48539-0.63677 0 0zm0.22656 0.17187c0.48271-0.57841 0.49504-0.62631 0 0zm0.23437 0.1875c0.4931-0.57004 0.50466-0.61583 0 0zm-7.2188 0.25782c0.15233-0.31781-0.0361-0.96801 6e-3 -0.12563zm-0.0859 8e-3c0.0287-0.47265-0.0892-1.1189 0 0zm0.22656 0c0.0888-0.69191 0.0588-0.86959 0 0zm-0.34375-0.14844c-0.31777-0.85597-0.12654 0.6526 0.0159-0.0894-0.0977-0.57037-0.0582-0.24958-0.0159 0.0894zm0.47656 0.15625c0.16761-0.52655 0.0791-0.78917 0 0zm0.17969 0.0312c0.15859-0.73807 0.14012-0.79787 0 0zm6.9922-0.10937c0.52055-0.59999 0.49229-0.58416 0 0zm-6.8047 0.14062c0.17857-0.64039 0.18479-0.8824 0 0zm-1.0234-0.0625c-0.22255-0.58833-0.60627-6e-3 0.0937 0.0391-0.20938-0.30272-0.5915-1.0473-0.0937-0.0391zm1.25 0.11719c0.19355-0.75776 0.17867-0.75624 0 0zm-1.4375 0.17187c-0.1547-0.45228-0.7432-0.52308 0 0zm-0.0391 0.0547c-0.53078-0.43111-0.71294-0.51448 0 0zm-0.0469 0.0625c-0.50098-0.39705-0.76853-0.51766 0 0zm-0.0391 0.0625c-0.513-0.37064-0.79625-0.48548 0 0zm-0.0391 0.0703c-0.46147-0.31901-0.89464-0.48652 0 0zm13.07-0.0234c-0.29651-0.62837-0.39489 0.70942 0.11719 0.35937 0.27609-0.5915 0.20787-0.57388 0-0.375 0.25911-0.73984-0.41443 0.44164-0.11719 0.0156zm1.1562-0.1875c-0.60955 0.0581-0.52854 0.22966-0.57812 0.71875 0.58124 0.66974 1.1113-0.17996 0.65625-0.76563zm-14.25 0.27343c-0.64639-0.34613-0.7509-0.36143 0 0zm65.352-0.10937c-0.20473 0.0303-0.0377 0.12629-0.27343 0.1875-0.4089 0.0113 0.0915 0.51169-0.39673 0.29721 0.33999 0.2049-3e-3 0.78079-0.0955 0.18716-0.45018-0.69091-1.4582-0.71128-1.2969 0.38282-0.35396 0.94696 0.55192 1.1857 0.85095 0.89096 0.12418 0.54749-0.17357-1.7618 0.75843-0.82065 0.12302-0.27915 0.85008-1.046 0.45312-0.20313-0.60068 1.4457 2.0299-0.15597 0.8125-0.67968-0.71063-6e-3 -0.93338-9e-3 -0.60937-0.17188-0.18953 0.0619-0.0691-0.21489-0.20313-0.0703zm-1.1641 1.375c0.60902 0.34646 0.6062 0.31449 0 0zm-64.227-1.1797c-0.61359-0.31862-0.80707-0.35583 0 0zm10.461 0.375c0.11188-0.73877 0.0902-0.80234 0 0zm-10.492-0.30469c-0.554-0.27547-0.89566-0.34845 0 0zm-0.0312 0.0781c-0.50607-0.25526-0.74418-0.22205 0 0zm-0.0156 0.0703c-0.46217-0.18642-1.0632-0.26939 0 0zm65.656-0.16406c-0.0216 0.44661-0.24107-0.0146 0 0zm-51.297 0.67187c0.4406-0.52339 0.52519-0.70169 0 0zm-14.414-0.28906c-0.3416-0.31458-0.90482-0.0992 0 0zm-0.0156 0.14844c-0.76764-0.11581-0.76909-0.10155 0 0zm-0.0156 0.11719c-0.5552-0.13481-0.76916-0.057 0 0zm-8e-3 0.21093c-0.50004-0.0825-1.0868-0.0357 0 0zm15.852 0.8125c0.4231-0.60689 0.44101-0.69456 0 0zm49.5-0.32812c0.6253 0.20263 0.92829 0.28431 0 0zm-0.48438 1.4688c0.69759 0.24658 0.86615 0.25427 0 0zm-66.164 1.3203c-0.59921-0.43337-0.68423-0.45117 0 0zm65.773-0.26562c0.6908 0.27505 0.85273 0.28755 0 0zm-0.20313 0.48437c0.59628 0.25493 0.91138 0.37308 0 0zm-46.305 0.67969c0.19755-0.60046 0.13377-1.0379 0 0zm44.25-0.14844c-0.60281-0.45141-0.65767-0.46601 0 0zm-64.016 0.0391c-0.66552-0.42989-0.65308-0.40734 0 0zm18.836-0.10156c0.69894 0.52117 0.60865 0.26836 0 0zm47.031 0.0156c0.63405 0.29072 0.86542 0.35701 0 0zm-66.125 0.49218c-0.62925-0.40326-0.6913-0.41798 0 0zm65.914-0.0391c0.6308 0.31075 0.85011 0.37885 0 0zm-46.875 0.21094c0.5679-0.11439 0.71857-0.28197 0 0zm-19.281 0.24219c-0.67589-0.41067-0.66313-0.38841 0 0zm65.93-0.0156c0.60268 0.31442 0.86721 0.41111 0 0zm-66.18 0.4375c-0.63809-0.38419-0.70292-0.39868 0 0zm63.555 0.14844c-0.47083-0.52543-0.59561-0.61036 0 0zm2.5156-0.38281c0.55293 0.30426 0.89182 0.46334 0 0zm-41.562 0.79687c0.30091-0.61848 0.39766-0.8902 0 0zm38.492 0.0312c-0.21915-0.5173-0.44266-0.65191 0 0zm-63.234-0.16406c-0.68592-0.3912-0.67322-0.36945 0 0zm63.008 0.28906c-0.16569-0.5497-0.3636-0.68864 0 0zm3.0703-0.53906c0.64305 0.37989 0.80031 0.40712 0 0zm-3.2891 0.64062c-0.2475-0.69699-0.30968-0.76594 0 0zm-41.68 0c0.5009-0.56806 0.51375-0.61468 0 0zm4.5078 0.14844c0.32186-0.63349 0.35466-0.87742 0 0zm40.227-0.40625c0.54532 0.34556 0.84374 0.50632 0 0zm-39.398 0.76563c0.2889-0.62578 0.35769-0.90156 0 0zm0.40625 0.16406c0.25557-0.6149 0.36108-0.92948 0 0zm38.75-0.54688c0.5608 0.36497 0.81149 0.5121 0 0zm-66.062 0.34375c-0.63851-0.36499-0.73905-0.38133 0 0zm39.117 0.35157c0.14471-0.76611 0.13053-0.76773 0 0zm-26.07 0.0156c0.0819-0.66423 0.0964-0.98403 0 0zm52.891-0.53125c0.68609 0.48115 0.71492 0.41166 0 0zm-37.812 0.67969c0.26856-0.64323 0.30518-0.92321 0 0zm16.648-0.46094c-0.75687-0.0748-3.4347 0.21954-2.0883 0.85471 0.75487-0.11163 2.3766 0.88619 2.3149-0.30783-0.17911-0.099 0.0517-0.66342-0.22657-0.54688zm-44.992 0.36719c-0.64025-0.34763-0.74272-0.3624 0 0zm65.914-0.25781c0.61109 0.48071 0.71663 0.49632 0 0zm-42.594 0.53906c0.46208-0.58206 0.48043-0.66164 0 0zm5.8438 0.0937c0.2225-0.63228 0.31055-0.9536 0 0zm17.141-0.27344c-0.38511 0.72347 0.33694 1.0348 0.99219 0.89063 0.40378-0.21723 0.38711-1.4865-0.41406-1.125-0.20537 0.0876-0.69765-0.22597-0.57813 0.23437zm6.6953 0.25781c-0.25576 0.66713 0.4689 0.82576 0.98128 0.54675 2.0571 0.0515 0.49834-1.3886-0.76253-0.97643-0.24848-0.11253-0.11201 0.31785-0.21875 0.42968zm-23.414 0.15625c0.22983-0.65705 0.27095-0.93204 0 0zm-17.258-0.33593c0.3016 0.14514 0.87344-0.44571 0 0zm53.32-0.10157c0.55986 0.44929 0.73757 0.54909 0 0zm-41.938 0.5c0.4803-0.57242 0.49945-0.64949 0 0zm-11.258-0.10937c0.6313-0.44089 0.6353-0.469 0 0zm18.031 0.3125c0.37388-1.2666 0.0433-0.14936 0 0zm-17.969-0.23438c0.61159-0.42381 0.65512-0.46918 0 0zm53-0.3125c0.58143 0.50719 0.70349 0.52619 0 0zm-41.625 0.48438c0.4906-0.57648 0.50419-0.62517 0 0zm7.5625 0.33594c0.20422-0.66803 0.23411-0.94161 0 0zm33.797-0.52344c0.57712 0.5513 0.65177 0.55345 0 0zm-41.047 0.4375c0.43848-0.33929 0.50524-0.61051 0 0zm-24.602-0.125c-0.60631-0.32785-0.79771-0.3674 0 0zm32.93 0.48437c0.17297-0.65065 0.2348-0.97674 0 0zm-8.0469-0.0937c0.41329-0.34196 0.72817-0.77259 0 0zm40.336-0.28125c0.48988 0.51735 0.68264 0.63475 0 0zm-48.797 0.49219c0.43334-0.50093 0.64274-0.77248 0 0zm8.6875 8e-3c0.47075-0.33264 0.55211-0.53955 0 0zm0.0937 0.10157c0.50613-0.36331 0.72013-0.60841 0 0zm39.727-0.33594c0.54892 0.63778 0.58996 0.57245 0 0zm-39.656 0.42969c0.51663-0.32252 0.77249-0.59011 0 0zm0.0859 0.10937c0.61159-0.42381 0.65512-0.46918 0 0zm-25.719-0.10156c-0.61235-0.30098-0.81368-0.33662 0 0zm65.008-0.21094c0.35014 0.55935 0.5989 0.69226 0 0zm-39.242 0.375c0.98235-0.52707 0.15652-0.0801 0 0zm0.0469 0.0781c0.50406-0.20503 0.90901-0.49259 0 0zm38.867-0.20313c0.43913 0.61665 0.55979 0.69009 0 0zm-38.844 0.25781c0.35338 5e-3 0.87213-0.42493 0.11959-0.0462zm0.0312 0.0625c0.55743-0.10922 0.7251-0.27068 0 0zm-8.1094 0.30469c0.47417-0.48753 0.66234-0.73038 0 0zm46.602-0.40625c0.38559 0.60473 0.5421 0.72869 0 0zm-38.438 0.15625c-0.30284 0.33188 0.81143 0.97006 0.0234 0.3125 0.52681 0.31822 0.0987-0.22708 0.47656-0.17187-0.69536-0.0747-0.72127-0.1173-0.5-0.14063zm38.125 0.0391c0.30569 0.63887 0.46809 0.7047 0 0zm-34.641 0.52344c-0.16913-1.0765-0.30851 0.25304 0.21094 0.15625 0.60663-0.47337-0.0513-0.0606 0.18843-0.32618 0.0555 0.0646-0.27795-0.57787-0.31473 0.15116-0.0438 0.23617-0.10567-1.016-0.0846 0.0188zm0.26563 0.21094c0.35266 0.53645 0.21891 0.2406 0.45957 0.12038-0.42332 0.14295 0.37717-0.64533-0.35407-0.18967zm0.0937 0.25c0.54916 0.0786 0.7891-0.0493 0 0zm-0.53906-0.3125c0.13237-0.42197-0.31873-0.85601 0 0zm-29.516-0.36719c-0.73078-0.29157-0.72405-0.27438 0 0zm29.43 0.40625c9e-3 -0.46385-0.41405-0.78069 0 0zm-10.953-0.10156c0.46607-0.49651 0.64957-0.74219 0 0zm20.781 0.14844c0.24481-0.67172 0.20498-0.9196 0 0zm25.023-0.0156c-0.32125-0.60296-0.48031-0.85621 0 0zm-34.969 0.0312c-0.32187-0.6806-0.35542-0.7198 0 0zm10.195 0.0469c0.18533-0.67323 0.18093-0.93407 0 0zm-13.453-0.57032c0.48988 0.51735 0.68264 0.63475 0 0zm-0.0391 0.0391c0.38496 0.58957 0.60083 0.60994 0 0zm13.789 0.59375c0.14027-0.65322 0.18416-0.97434 0 0zm23.992-0.58594c0.37086 0.71936 0.4317 0.72711 0 0zm-34.68 0.57812c-0.1859-0.54097-0.39251-0.67875 0 0zm-3.1719-0.53125c0.52441 0.74865 0.50599 0.57796 0 0zm14.562 0.67188c0.14528-0.6705 0.13814-0.97116 0 0zm-14.742-0.55469c0.39117 0.79516 0.42036 0.48029 0 0zm3.1797 0.51563c-0.30141-0.57483-0.49039-0.78399 0 0zm-29.086-0.30469c-1.0941-0.45072-0.0797-0.037 0 0zm63.57-0.20313c0.29962 0.65468 0.42862 0.81418 0 0zm-37.758 0.0391c0.31588 0.64253 0.45283 0.80501 0 0zm-6.7656 0.47656c0.4579-0.50547 0.63684-0.75401 0 0zm22.477 0.16406c0.10686-0.66254 0.13406-0.98567 0 0zm21.875-0.60156c0.26857 0.62916 0.39089 0.86302 0 0zm-37.68 8e-3c0.29172 0.64476 0.41404 0.82925 0 0zm7.4297 0.11719c-0.40437-0.10614 0.27168 0.52581-0.38281 0.17969 0.44502 0.56967 0.69698 0.43335 0.65625-0.26563-0.0116 0.36792-0.21305 0.20039-0.27344 0.0859zm-4.2656 0.4375c-0.41315-0.65199-0.43858-0.65368 0 0zm-3.2734-0.50781c0.26857 0.62915 0.39089 0.86302 0 0zm16.414 0.61718c0.0986-0.66311 0.1215-0.98511 0 0zm21.18-0.59375c0.2568 0.6428 0.38371 0.86421 0 0zm-29.578 0.65625c0.19419-0.46865 0.28079-1.054 0 0zm-8.3047-0.5625c0.27193 0.70602 0.38027 0.80548 0 0zm17.836 0.64063c0.0903-0.66368 0.10895-0.98457 0 0zm-14.516-0.0859c-0.38794-0.6053-0.48301-0.68611 0 0zm5.2266 0.0781c0.24393-0.67615 0.25081-0.80257 0 0zm29.172 8e-3c-0.23355-0.64177-0.35966-0.92181 0 0zm-28.945 0.0703c0.25917-0.55933 0.32516-0.90903 0 0zm28.516-0.57812c0.24101 0.69252 0.34506 0.84061 0 0zm-43.148 0.48437c0.44987-0.50733 0.61349-0.7716 0 0zm25.023 0.17188c0.0816-0.67105 0.0966-0.99778 0 0zm-44.586-0.45313c-0.45552-0.17879-1.0725-0.25776 0 0zm62.719 0.45313c-0.19908-0.6498-0.31077-0.93486 0 0zm-28.297 8e-3c0.29955-0.66191 0.3115-0.77612 0 0zm-9.6484-0.5625c0.2501 0.75724 0.32638 0.79048 0 0zm3.7266 0.5c-0.44089-0.6313-0.469-0.6353 0 0zm4.7891-0.11719c-0.34869-0.38858-0.70705-0.42539 0 0zm29.023-0.35156c0.20574 0.68827 0.29522 0.86955 0 0zm-27.672 0.61719c0.31898-0.60566 0.35796-0.8012 0 0zm27.641 0.0391c-0.17309-0.65707-0.27423-0.94849 0 0zm-0.22656 0.0625c-0.16457-0.65731-0.26191-0.94837 0 0zm-31.758-0.53125c0.8947 0.15198 0.60659-0.12537 0 0zm2.9375 0.25781c-0.62413-0.38555-0.71873-0.40201 0 0zm1.6172 0.27344c0.34592-0.59944 0.38834-0.78487 0 0zm-34.898-0.42188c-0.55574-0.15575-0.97981-0.17504 0 0zm20 0.36719c0.43395-0.52444 0.5983-0.77665 0 0zm8.2656 0.0156c-0.35068-0.52565-0.57993-0.73763 0 0zm-4.1953-0.48438c0.19883 0.70307 0.28395 0.85921 0 0zm23.797 0.64063c0.0733-0.67155 0.0841-0.99728 0 0zm13.617-0.60157c0.17995 0.75459 0.24667 0.83569 0 0zm-26.383 0.58594c0.34476-0.52514 0.4522-0.82287 0 0zm-11.414-0.52344c0.17831 0.69535 0.2606 0.88181 0 0zm6.6328 0.0781c0.83003 0.19905 0.60605-0.0701 0 0zm30.852 0.5625c-0.1189-0.68053-0.21183-0.9417 0 0zm-37.727 0.0625c-0.14716-0.66407-0.23763-0.96236 0 0zm11.852-0.0703c0.21892-0.27335 0.67862-1.1006 0 0zm-14.953 0c0.45833-0.55015 0.52802-0.78237 0 0zm40.336 0.10156c-0.11282-0.67085-0.18861-0.97651 0 0zm-43.32-0.0625c0.51118-0.55953 0.52329-0.60419 0 0zm42.82 0.14844c-0.0799-0.69938-0.17648-0.93987 0 0zm-27.094-0.3125c-0.63234-0.36661-0.73076-0.3823 0 0zm2.4141 0.25781c0.42219-0.62011 0.43717-0.67968 0 0zm16.242 0.10937c0.0649-0.67202 0.0716-0.99678 0 0zm-21.477-0.60156c0.76119 0.22617 0.74681 0.13889 0 0zm-7.7422 0c0.15391 0.73678 0.22817 0.8625 0 0zm37.086 0.625c-0.0787-0.67069-0.13927-0.97697 0 0zm-38.969-0.0547c0.3514-0.37593 0.5756-1.0218 0 0zm1.6562 0.10938c-0.10116-0.68649-0.18806-0.95641 0 0zm7.9375-0.55469c0.71016 0.21067 0.87633 0.20853 0 0zm5.4375 0.47656c0.3315-0.35549 0.63793-0.90544 0 0zm-14.898 0.0469c0.3448-0.56974 0.50147-0.87042 0 0zm1.1875 0.0859c-0.0958-0.67082-0.16394-0.97669 0 0zm31.719 0.0156c0.0566-0.6725 0.0591-0.99631 0 0zm4.8828 8e-3c-0.0439-0.69583-0.12948-0.94406 0 0zm-37.68-0.0469c0.33931-0.53151 0.14692 0.28337 0.33604-0.15514 0.0698 0.44854 0.22928-1.0988-0.33604 0.15514zm0.6875-0.54688c0.0799 0.83767 0.19592 0.73964 0 0zm11.406 0.28907c-0.64024-0.34763-0.74272-0.3624 0 0zm21.516 0.34375c0.0482-0.67295 0.0466-0.99585 0 0zm3.5703 8e-3c-0.0312-0.68943-0.0917-0.97476 0 0zm-2.8438 0.0312c0.0398-0.67339 0.0342-0.9954 0 0zm2.3359 0c-0.0277-0.67615-0.0652-0.9924 0 0zm-57.641-0.52344c-0.76721-0.12547-0.76862-0.11121 0 0zm55.961 0.54688c0.0377-0.684 6e-3 -0.98073 0 0zm1.1562 0c9e-3 -0.69694-0.0579-0.96401 0 0zm-0.55469 8e-3c0.0352-0.50807-0.0417-1.2292 0 0zm-20.625-0.125c0.48029-0.57243 0.49945-0.64949 0 0zm-5.7031-0.34375c0.79921 0.27299 0.79169 0.21048 0 0zm5.875 0.46875c0.4509-0.46759 0.58221-0.7045 0 0zm-5.9297-0.33594c0.63444 0.2495 0.89992 0.31417 0 0zm6.0781 0.46094c0.44377-0.34015 0.51621-0.58166 0 0zm-36.305-0.34375c-0.55478-0.1186-1.0006-0.11367 0 0zm36.453 0.5c0.52543-0.47083 0.61036-0.5956 0 0zm-6.3594-0.27344c0.83074 0.3454 0.73799 0.25002 0 0zm6.4922 0.41406c0.48877-0.30771 0.57016-0.52841 0 0zm-17.617 0.23438c0.44082-0.65746 0.41678-0.64325 0 0zm17.758-0.0703c0.57524-0.42169 0.65825-0.52778 0 0zm-6.7969-0.23438c0.67774 0.32358 0.82584 0.34226 0 0zm-10.555 0.54688c0.3912-0.68593 0.36945-0.67323 0 0zm17.484-0.14063c0.62211-0.45076 0.62613-0.47939 0 0zm-36.922-0.24219c-0.74369-0.0927-0.81205-0.0699 0 0zm25.953 0.53907c-0.33711-0.70157-0.35805-0.69918 0 0zm11.078-0.15625c0.50225-0.23217 0.63496-0.4642 0 0zm-11.523 0.36718c-0.17087-0.53956-0.40656-0.92938 0 0zm11.641-0.1875c0.62749-0.35436 0.70535-0.4401 0 0zm-11.93 0.30469c-0.24804-0.71384-0.27428-0.74653 0 0zm-25.25-0.47656c-0.74328-0.074-0.81364-0.0498 0 0zm24.641 0.65625c-0.15376-0.74643-0.17361-0.77127 0 0zm12.633-0.32031c0.50628-0.21314 0.90389-0.50254 0 0zm0.0859 0.15625c0.54308-0.16298 0.69266-0.35076 0 0zm-7.75-0.21875c0.625 0.32986 0.83631 0.40122 0 0zm7.8359 0.42187c0.72383-0.29025 0.71712-0.30848 0 0zm0.0703 0.15625c0.53896-0.0891 0.73984-0.29873 0 0zm-8.1641-0.10937c0.58277 0.32144 0.85003 0.4527 0 0zm-29.398 0.0937c-0.77293-0.0476-0.78138-0.0336 0 0zm37.625 0.20312c0.66183-0.15807 0.84757-0.26116 0 0zm0.0547 0.19531c0.67314-0.13332 0.85426-0.22683 0 0zm-8.5703 0.0156c0.55463 0.31747 0.87291 0.47209 0 0zm8.6172 0.16406c-0.13675 0.0635 1.3846-0.26607 0 0zm-6.0312 0.26563c-0.67588-0.41067-0.66313-0.38841 0 0zm6.0703-0.0625c0.66676-0.0643 0.88026-0.14007 0 0zm-37.797 0.10937c-0.74216-0.0461-0.81595-0.0194 0 0zm37.828 0.0937c0.66977-0.0394 0.87941-0.10662 0 0zm-9.0312 0.0234c0.57192 0.33663 0.83929 0.47782 0 0zm9.0469 0.16406c0.47505 0.0344 1.1164-0.075 0 0zm8e-3 0.21094c0.77306 0.0583 0.76792-0.06 0 0zm-8e-3 0.21094c0.68228 0.036 0.95155 0.0177 0 0zm-9.4297 0.0469c0.5446 0.33224 0.86177 0.49754 0 0zm9.4141 0.17188c0.63677 0.0451 0.99179 0.0531 0 0zm-8e-3 0.10156c0.83709 0.16778 0.61224-0.11962 0 0zm-0.0234 0.15625c0.64063 0.23858 0.86237 0.0662 0 0zm-38.445 0.19531c0.50807 0.0352 1.2292-0.0417 0 0zm38.359 0.125c0.79055 0.32885 0.6709 0.0693 0 0zm-0.0781 0.21875c0.70809 0.27185 0.84271 0.27257 0 0zm-0.10156 0.25c0.63511 0.27019 0.8821 0.33552 0 0zm-9.9297 0.10156c0.54532 0.34557 0.84374 0.50632 0 0zm9.8125 0.16407c0.91061 0.4266 0.663 0.23558 0 0zm-38.055 0.0781c0.69584 0.0177 0.9652-0.0459 0 0zm37.914 0.1875c0.60866 0.33031 0.84598 0.41806 0 0zm-0.16406 0.29688c0.64304 0.37989 0.8003 0.40712 0 0zm-37.727 0.4375c0.69694 9e-3 0.96401-0.0579 0 0zm27.422 0.0859c0.59708 0.39657 0.78408 0.47951 0 0zm9.8984 0.125c0.68798 0.4776 0.62416 0.34101 0 0zm-0.23438 0.35157c0.54528 0.37683 0.80361 0.53924 0 0zm-37.047 0.32812c0.69905-9e-3 0.96165-0.0818 0 0zm36.773 0.0547c0.51919 0.37097 0.82536 0.55991 0 0zm-10.086 0.14844c0.63047 0.45186 0.73931 0.46374 0 0zm9.7969 0.25781c0.56154 0.41981 0.7709 0.53332 0 0zm-7.5703 0.36719c-0.60281-0.45141-0.65767-0.46601 0 0zm-2.5781-0.16407c0.51437 0.39516 0.79323 0.57903 0 0zm-26.281 0.17969c0.70109-0.0264 0.95937-0.10567 0 0zm28.562 0.41406c-0.64656-0.4597-0.63324-0.4357 0 0zm-2.4922-0.32031c0.51146 0.40731 0.77762 0.58865 0 0zm-0.22657 0.28125c0.52028 0.42459 0.74975 0.59598 0 0zm2.4375 0.44531c-0.61238-0.4327-0.66929-0.44699 0 0zm7.4844-0.33593c0.52367 0.41233 0.76491 0.58628 0 0zm-35.695 0.29687c0.69583-0.0439 0.94406-0.12948 0 0zm27.961 0.42188c-0.60689-0.42311-0.69456-0.44102 0 0zm7.3516-0.24219c0.49778 0.40463 0.78633 0.60794 0 0zm-10.07 0.0469c0.49346 0.41563 0.77149 0.6182 0 0zm-25.195 0.13282c0.67069-0.0787 0.97697-0.13928 0 0zm35.125-8e-3c0.53236 0.4573 0.74058 0.57542 0 0zm-7.4219 0.40625c-0.52025-0.36226-0.80684-0.47319 0 0zm7.2578-0.21875c0.48335 0.43697 0.74286 0.63922 0 0zm-34.914 0.15625c0.67076-0.0872 0.97682-0.1516 0 0zm34.719 0.0547c0.51935 0.49536 0.6969 0.60252 0 0zm-7.2891 0.41406c-0.64537-0.37365-0.71316-0.38868 0 0zm-27.383-0.15625c0.70018-0.089 0.9389-0.18816 0 0zm24.516-0.0937c0.48866 0.42643 0.75699 0.62861 0 0zm2.8125 0.35938c-0.967-0.56226-0.15107-0.0921 0 0zm-0.0547 0.11719c-0.65526-0.30967-0.76634-0.32212 0 0zm-27.219-0.10157c0.68053-0.1189 0.94169-0.21183 0 0zm0.0547 0.25c0.88431-0.18597 0.63215-0.17711 0 0zm0.0625 0.22657c0.6721-0.16379 0.91737-0.30043 0 0zm23.703-0.125c0.48336 0.43696 0.74287 0.63921 0 0zm-23.586 0.5c1.9757-0.65052-0.8129 0.26548 0 0zm33.023-0.0312c0.45634 0.47512 0.6901 0.68428 0 0zm-32.781 0.72656c0.66849-0.20923 0.89941-0.35867 0 0zm32.117-0.0937c0.44812 0.48336 0.67783 0.69636 0 0zm-31.992 0.41406c0.63485-0.24266 0.90803-0.3714 0 0zm0.125 0.3125c0.65637-0.24618 0.86979-0.40452 0 0zm0.13281 0.29688c0.65046-0.27412 0.8545-0.43871 0 0zm0.14063 0.28125c0.60622-0.29392 0.88533-0.46609 0 0zm20.742-0.13282c0.47748 0.44718 0.7291 0.65005 0 0zm-20.602 0.39844c0.61801-0.30705 0.84897-0.48119 0 0zm29.992-0.23437c0.43936 0.49102 0.6659 0.70881 0 0zm-29.844 0.5c0.59138-0.31987 0.85848-0.50263 0 0zm0.14844 0.25781c0.48752-0.23034 0.93452-0.66452 0 0zm0.33594 0.49219c0.46143-0.27149 0.9002-0.705 0 0zm0.17968 0.23437c0.53781-0.40733 0.76586-0.62338 0 0zm18.414-0.21094c0.47103 0.45698 0.71572 0.66115 0 0zm-18.227 0.44532c0.54365-0.41657 0.72609-0.64129 0 0zm27.484-0.38282c0.43012 0.4981 0.65427 0.72165 0 0zm53.023 0.64063c0.0182-0.74049-0.0112-0.81812 0 0zm0.375 0c0.0185-0.77227 4e-3 -0.78269 0 0zm-0.75782 8e-3c0.0112-0.68412-0.0393-0.87991 0 0zm1.2969 0c0.0461-0.74216 0.0194-0.81595 0 0zm0.20312 8e-3c0.08-0.69115 0.0481-0.87095 0 0zm-1.8906 0.0156c-0.0142-0.6812-0.0725-0.88222 0 0zm2.2188 0c0.21279-0.45645 0.018-0.8444 0 0zm0.13281 0.0234c0.14928-0.73836 0.13017-0.79875 0 0zm0.0703 8e-3c0.3073 0.22773 1.0945-0.40216 0.21094 0.0312 0.54946-0.18476 0.19853-0.54045 0.10351-0.31543-0.0613 0.13318-0.17804-0.47634-0.31445 0.28418zm-3.25 0.0391c-0.031-0.67078-0.0955-0.87899 0 0zm-0.39843 0.0547c-0.0735-0.72576-0.11462-0.81621 0 0zm-78.305-0.17969c0.52113-0.44558 0.72931-0.64754 0 0zm77.898 0.24219c-0.10621-0.75783-0.12379-0.77871 0 0zm-0.40625 0.0703c-0.0584-0.60223-0.18228-0.95534 0 0zm-56.938-0.14062c-0.53323-0.54165-0.5727-0.55168 0 0zm-20.344 0.0703c0.52881-0.44471 0.6989-0.67522 0 0zm76.508 0.22656c-0.0438-0.37333-0.27788-1.2498 0 0zm-0.35938 0.0937c-0.15712-0.73084-0.20556-0.79087 0 0zm-58.977-0.59375c0.46399 0.46631 0.70273 0.67255 0 0zm-17 0.45313c0.51845-0.47454 0.67704-0.68691 0 0zm81.734-0.16407c0.71198-0.25685 0.74648-0.2842 0 0zm-6.0938 0.39063c-0.17212-0.69866-0.23055-0.80382 0 0zm-55.805-0.11719c-0.54211-0.53155-0.5832-0.54225 0 0zm-19.656 0.0703c0.5007-0.47082 0.65472-0.73177 0 0zm75.141 0.14844c-0.10037-0.5759-0.26206-0.7265 0 0zm6.4453-0.40625c0.5759-0.10038 0.7265-0.26206 0 0zm-6.7031 0.5c-0.25685-0.71199-0.2842-0.74648 0 0zm-74.703-0.0781c0.4789-0.49142 0.61421-0.75246 0 0zm81.438-0.33594c0.54376-0.0368 0.76498-0.21792 0 0zm-6.8672 0.46094c-0.26709-0.70439-0.29473-0.73791 0 0zm10.086 0.0469c0.0946-0.51917-0.0593-0.81117 0 0zm0.0625 0c0.17935-0.47408 0.0159-0.84313 0 0zm-0.0937 8e-3c-0.0583-0.76754-0.0742-0.78589 0 0zm0.19531 0c0.44327 0.0307 1.4176 0.58401 0.51562 0.8125 0.62133-0.81874 1.3362 1.0099 0.52344 1.125 0.60261-0.35226-0.20458 0.40162 0.32813 0.42969 0.0573 0.38398 0.20373 0.0278 0.48437-0.25-0.31201-0.26466 0.22878-0.22927-0.20312-0.35156 0.5465-0.16171-0.49166-0.21822 0.36718-0.38281-1.0256 0.064 0.19568-0.28762-0.60156-0.14063 0.63179-0.33238-0.16713-0.16693 0.20606-0.38203-0.20399 0.0143-0.22856-0.24895-0.28121-0.37179 0.19504-0.2063-0.58793 0.31118 0.0673-0.39462-0.61024 0.36375-0.44974 0.19519-0.30469-0.28125-0.72803 0.49849-0.35538-0.22805-0.57559-0.0552-0.19789-0.11214-0.28223 0.35484-0.2965-0.28056-0.2443 1.2173-0.0366-0.86586-0.22947 0.52329zm1.5391 2.4297c-0.0705 0.0497 0.24286 0.15396 0 0zm-1.9219-2.6484c-0.27196-0.65353 0.22963 0.51977 0 0zm-9.9922 0.21875c-0.25714-0.68894-0.32093-0.75791 0 0zm9.9062 0.0547c-0.0779-0.37206-0.3784-1.1979 0 0zm-10.016-8e-3c-0.27516-0.67885-0.34235-0.74944 0 0zm-55.148-0.14063c-0.3899-0.41413-0.7624-0.66232 0 0zm-19 0.0703c0.44226-0.51553 0.61091-0.76482 0 0zm84.031 0.125c-0.0432-0.50914-0.34394-0.7647 0 0zm-9.9844-8e-3c-0.39647-0.91227-0.1297-0.30301 0 0zm9.8984 0.0469c-0.0341-0.46608-0.48614-0.7339 0 0zm-83.75-8e-3c0.46616-0.53937 0.54116-0.77268 0 0zm73.734 0.0312c-0.22784-0.48332-0.54891-0.89036 0 0zm-48.992-0.52344c0.42045 0.50458 0.64293 0.73486 0 0zm56.367 0.0937c0.60223-0.0584 0.95534-0.18228 0 0zm2.5625 0.46094c-0.39506-0.66341-0.41853-0.66287 0 0zm-10.07 0.0625c-0.32292-0.55494-0.52827-0.76571 0 0zm5.3594-0.48438c0.55364 0.55708 0.5917 0.37243 0 0zm-78.766 0.5c0.66516-0.89833 0.34044-0.55108 0 0zm83.352 0c-0.0387-0.34126-0.60391-0.76599-0.0659-0.10264zm-2.4219-0.4375c0.50938 1e-3 1.0798-0.14067 0 0zm-62.547 0.35156c-0.57648-0.49059-0.62517-0.50418 0 0zm64.898 0.14844c-0.0499-0.41237-0.71161-0.62922 0 0zm-10.023 0.0312c-0.68983-1.0161-0.0127-0.0244 0 0zm-58.062-0.49219c0.45635 0.47512 0.6901 0.68428 0 0zm-14.992 0.53125c0.38404-0.56969 0.52289-0.83518 0 0zm83.031-8e-3c-0.45512-0.47896-0.67445-0.61029 0 0zm-82.82 0.14063c0.32665-0.4362 0.5301-1.0255 0 0zm72.719-0.0625c-0.43785-0.55431-0.56985-0.64354 0 0zm7.8281-0.375c0.59553 0.01 0.9781-0.0731 0 0zm2.1875 0.39062c-0.50088-0.46921-0.66748-0.5568 0 0zm-82.516 0.16406c0.33777-0.60309 0.43354-0.88284 0 0zm72.359-0.0547c0.0397-0.0143-0.83935-0.90633 0 0zm5.4844-0.42969c0.7465 0.45709 0.70872 0.36346 0 0zm-54.164 0.46875c-0.42732-0.53735-0.62413-0.75475 0 0zm-6.2344-0.0781c-0.3144-0.39195-0.6867-0.46699 0 0zm64.961 8e-3c-1.3872-0.57986 0.86437 0.56844-0.45312-0.36719 0.15104 0.12239 0.30208 0.24479 0.45312 0.36719zm-82.172 0.20312c0.32208-0.60536 0.40788-0.88069 0 0zm80.102-0.52344c0.77619-0.0181 0.86957-0.0812 0 0zm-4.6797 0.39063c0.56996-0.38084 0.75112-0.62296 0 0zm-3.3984 0.0703c-0.4856-0.49699-0.64071-0.58516 0 0zm-54.852-0.0781c-0.51526-0.37995-0.79055-0.49373 0 0zm-16.938 0.25c0.27792-0.42478 0.38118-1.1242 0 0zm13.602-0.54688c0.49068 0.53849 0.64572 0.64349 0 0zm8.9297 0.0547c0.41548 0.52682 0.61143 0.73812 0 0zm-22.016 0.67969c0.23106-0.62435 0.32298-0.94087 0 0zm71.016-0.25782c-0.75093-0.55333 0.36222 0.259 0 0zm8.3359-0.29687c0.79287 0.0201 0.85857-0.0373 0 0zm-19.531 8e-3c0.0118 0.0157-0.50327 0.62104 0.17188 0.89063 0.63456-0.14947 0.46648-0.5206 0.29687-0.89063-0.30785 0.0871-0.34792 0.0617-0.46875 0zm-46.938-8e-3c0.43012 0.49809 0.65428 0.72165 0 0zm3.4141 0.32031c-0.45975-0.33596-0.87495-0.50811 0 0zm58.609 0.0937c0.53735-0.42732 0.75475-0.62413 0 0zm6.4688-0.14062c0.0405-0.38825-1.0956-0.22418 0 0zm-81.102 0.375c0.24997-0.63482 0.24278-0.95227 0 0zm21.477-0.57032c0.40399 0.53129 0.60112 0.75249 0 0zm-5.4922 0.3125c-0.63233-0.3666-0.73076-0.38229 0 0zm-15.695 0.33594c0.18159-0.64288 0.24717-0.96387 0 0zm12.125-0.5625c0.42045 0.50458 0.64293 0.73486 0 0zm3.5391 0.30469c-0.37617-0.33596-0.79164-0.30311 0 0zm-15.359 0.33594c0.18748-0.67045 0.20938-0.93923 0 0zm70.148-0.25782c-0.45975-0.33596-0.87495-0.50811 0 0zm8.3203-0.27343c0.8828 0.068 0.78891-7e-3 0 0zm1.7422 0.0312c-0.9617 0.0346 0.87039 0.20817 0.017-0.0343-0.43678-0.0587-0.34207-0.0309-0.017 0.0343zm-79.898 0.57031c0.17618-0.68245 0.16901-0.94515 0 0zm20.32-0.60938c0.39236 0.53525 0.59096 0.76723 0 0zm-8.9766 0.0391c0.57452 0.72487 0.52398 0.55225 0 0zm58.461 0.29687c-0.63233-0.36661-0.73076-0.38229 0 0zm-69.469 0.33594c0.13162-0.6608 0.17184-0.98736 0 0zm10.891-0.54688c0.41261 0.67372 0.48154 0.48424 0 0zm3.5 0.0781c-0.21069-0.05 0.1972 0.22636-0.0175 0.3356 0.09-0.15776-0.2647 0.66324 0.3613-0.1481 9e-3 -0.31324-1.1084-0.36699-0.34375-0.1875zm0.35156 0.17969c-0.5303 1.2091 0.098 0.42698 0 0zm58.945 0.125c0.54363-0.42552 0.72574-0.65301 0 0zm-73.336 0.22656c0.13044-0.66768 0.1421-0.97684 0 0zm68.969-0.39844c-0.49385-0.14801-0.19259 0.18153-0.26563 0.15625 1.2389 0.0827-0.87832-0.65922 0.26563-0.15625zm0.10156 0.15625c-1.0226 0.0853-0.15436 0.3504 0 0zm0.0234 0.10938c-1.2114 0.42397-0.36205 0.27285 0 0zm-58.641-0.42969c0.3605 0.7236 0.44265 0.49937 0 0zm-10.086 0.61719c0.11388-0.66938 0.11709-0.97513 0 0zm78.539-0.48438c-0.0778 0.12609 1.1142-0.18778 0 0zm-4.3047-0.0781c0.63444 0.2495 0.89992 0.31416 0 0zm-73.852 0.60937c0.0903-0.66368 0.10895-0.98457 0 0zm76.688-0.57031c0.80904 0.10783 0.84226 0.0341 0 0zm-67.188 0c0.28353 0.78392 0.41952 0.49759 0 0zm-9.1016 0.61719c0.0888-0.67196 0.0797-0.97253 0 0zm9.0391-0.59375c0.22383 0.67968 0.34285 0.85384 0 0zm9.0312 8e-3c0.43371 0.64057 0.54814 0.68407 0 0zm59.758 0.23437c0.65984-0.19754 0.89839-0.37957 0 0zm-68.727 0.39063c-0.19059-0.65014-0.29844-0.93465 0 0zm-8.2344 0.0391c0.0716-0.68089 0.0552-0.98399 0 0zm75.406-0.59375c0.7651 0.14763 0.8649 0.10257 0 0zm-67.484-8e-3c0.11744 0.84196 0.27822 0.63139 0 0zm-7.4609 0.63281c0.0482-0.67295 0.0466-0.99584 0 0zm16.602-0.60156c0.51437 0.84353 0.42455 0.57696 0 0zm-9.1641 0.60937c-0.0924-0.68611-0.17607-0.9569 0 0zm-0.29688-0.58593c0.10588 0.82737 0.16097 0.81135 0 0zm-0.13281 0.64062c-0.0264-0.70108-0.10567-0.95937 0 0zm9.4844-0.60937c0.39945 0.80485 0.35772 0.52332 0 0zm0 8e-3c-0.0794 0.4352 0.41204 0.81603 0 0zm60.07 0.23437c0.65636-0.24618 0.86979-0.40451 0 0zm-75.031 0.375c0.0462-0.68324 0.0182-0.98153 0 0zm5.2188 8e-3c-0.0277-0.67615-0.0652-0.9924 0 0zm67.156-0.60157c0.69585 0.0177 0.9652-0.0459 0 0zm-71.82 0.60938c0.023-0.67421 9e-3 -0.99454 0 0zm69.102-0.19531c0.53433-0.45527 0.70282-0.66476 0 0zm-59.227 0.17968c0.27739-0.65297 0.25537-0.91857 0 0zm62.961-0.58593c0.63472 0.14354 0.9575 0.19982 0 0zm-68.773 0.625c-5e-3 -0.68756-0.0553-0.97687 0 0zm-2.2422 8e-3c0.0291-0.68475-6e-3 -0.97993 0 0zm1.8828 0c0.012-0.68619-0.0309-0.97837 0 0zm10.562-0.60938c0.23692 0.80487 0.30453 0.76567 0 0zm-4.2578 0.60157c0.21924-0.65955 0.23011-0.9274 0 0zm0.14844 0.0391c0.23647-0.88237 0.11684-0.62825 0 0zm4.1562-8e-3c-0.15605-0.65752-0.24959-0.94828 0 0zm-0.3125-0.57032c0.16564 0.76839 0.24219 0.83185 0 0zm-3.6875 0.60938c0.1474-0.65842 0.16694-0.96561 0 0zm64.242-0.3125c0.65046-0.27412 0.8545-0.43871 0 0zm-60.57 0.34375c-0.11281-0.67085-0.1886-0.97651 0 0zm58.82-0.60156c0.62865 0.15027 0.96126 0.213 0 0zm-0.97656 0.0625c0.70717-3e-3 0.95077-0.0964 0 0zm-61.172 0.57031c0.13002-0.57627 0.13933-1.0947 0 0zm0.17968 0.0234c0.0972-0.6711 0.0922-0.9734 0 0zm2.6797-0.60938c0.098 0.82214 0.21957 0.76295 0 0zm-2.2969 0.64844c0.08-0.6801 0.0676-0.98482 0 0zm61.555-0.57813c0.79914 0.22406 0.81911 0.14444 0 0zm-59.531 0.58594c-0.03-0.70387-0.13172-0.93337 0 0zm-0.19531 0.0156c-9e-3 -0.69906-0.0819-0.96165 0 0zm-1.4297 8e-3c0.0694-0.68903 0.0269-0.97255 0 0zm63.023-0.29688c0.55213-0.21468 0.92155-0.59705 0 0zm-62.617 0.3125c0.0437-0.69248-0.01-0.96885 0 0zm0.41407 0c0.0177-0.69584-0.0459-0.9652 0 0zm57.422-0.57812c0.82334 0.25656 0.63829 0.15978 0 0zm0 8e-3c-1.2202 1.9375 1.935 1.238 0 0zm1.9844 0.0625c0.6768-0.0531 0.99159-0.10233 0 0zm0.90625-0.0312c0.6253 0.20263 0.92829 0.28431 0 0zm1.9922 0.39063c0.59621-0.35274 0.80807-0.53927 0 0zm-2.8828-0.19532c0.66398-8e-3 0.81615-0.19776 0 0zm0.85156-0.0859c0.834 0.30279 0.76302 0.19578 0 0zm-8.6328 0.23437c0.6559-0.23698 0.87057-0.39299 0 0zm3.2188-0.17969c0.91458-0.038 0.75799-0.11667 0 0zm5.3828 0.0234c0.69007 0.30965 0.81266 0.27825 0 0zm2.1719 0.36719c0.5886-0.37093 0.79466-0.56255 0 0zm-2.9609-0.21094c0.68079-0.12776 0.94129-0.22378 0 0zm-7.7422 0.16406c0.62805-0.23154 0.88219-0.48075 0 0zm8.5-0.25c0.76743 0.38657 0.74802 0.30665 0 0zm-0.72656 0.21875c0.67689-0.13694 0.93357-0.26507 0 0zm0.6875-0.14843c0.61653 0.34777 0.82409 0.4243 0 0zm2.8594 0.0234c0.0244 0.01-0.0151-0.0418 0 0zc-0.63782 0.42644-0.62866 0.46783 0 0zm0 8e-3c-0.50842 0.72346 0.0362 0.24589-0.0469 0.48437-0.0295 0.48126 0.31411 0.5818 0.25 0.35938 0.16589 0.22011 0.2709-0.14611 0.1108-0.22588-0.0139-0.27069 0.34589-0.22662-0.0796-0.34444-0.0784-0.0909-0.16061-0.17855-0.23437-0.27343zm-11.234 0.3125c0.47137-0.19023 0.98798-0.61914 0 0zm7.7188-0.0781c0.83276-0.1672 0.0374 0.0899 0.23852 0.30778 0.22802-0.24051 0.19212 0.34751 0.34742-0.15934 0.0876 0.52621 0.16609-0.0564 0.23281-5e-3 -0.20391-0.3528 0.69736 0.16351-0.225-0.32344-0.0135-0.2146-0.46288 0.19711-0.59375 0.17969zm0.57031-0.14844c-0.0278 6e-3 0.0298-0.0201 0 0zm-8.1875 0.39063c0.46833-0.21234 0.92523-0.72395 0 0zm2.9609-0.28906c0.8763 0.0244 0.79411-0.0474 0 0zm-8e-3 0.0859c0.63677 0.0451 0.99179 0.0531 0 0zm-8e-3 0.10157c0.81604 0.0881 0.83859 0.0127 0 0zm-2.7188 0.40625c0.4342-0.19451 0.95051-0.92983 0 0zm2.7109-0.33594c0.64258 0.0947 0.97033 0.1262 0 0zm-2.5938 0.46094c0.51845-0.47454 0.67705-0.68691 0 0zm2.5859-0.39844c0.7215 0.24412 0.77257 0.0548 0 0zm-2.4688 0.51562c0.61563-0.68563 0.14896-0.16942 0 0zm2.4375-0.42187c-0.30609 0.14189 0.3057 1.0631 0.0312 0.42187 0.14843 0.0102 0.15083-0.0406 0.4319-0.0256 0.1293-0.0527-0.43742-0.36279-0.46315-0.39626zm-2.2578 0.55469c0.24458 2e-3 0.65734-0.87107 0.0613-0.11009zm0.30469 0.14062c0.27712-0.63349 0.31766-0.91251 0 0zm0.23437-0.57812c-0.27766 0.76839-0.0208 0.66592 0 0zm1.4922 0.0469c-0.0961 0.58858 0.35557 0.6734 0 0zm-1.4531 0.60938c0.24523-0.92182 0.12244-0.6436 0 0zm0.19532 0.0391c0.15924-0.68524 0.14455-0.94232 0 0zm1.1875 0c-0.10429-0.67085-0.17627-0.97659 0 0zm-0.99219 0.0312c0.14627-0.49331 0.0535-1.1688 0 0zm0.70312-0.61719c0.0891 0.82964 0.20871 0.75651 0 0zm-0.5 0.63281c0.0882-0.67633-0.0199-0.98438 0 0zm0.40625 0c0.036-0.70082-0.0923-0.95649 0 0z" opacity=".63942"/>
   <path d="m197.21 436.2c-0.96031 0.28662-0.48141 1.5696-1.1328 2.1641-3.1523 5.7027-6.8998 11.011-11.414 15.727-1.0064 0.78672-0.35045 3.0766 0.96875 1.9922 2.086-0.20778 4.5655 0.34961 6.1155-1.4628 3.7963-3.4072 7.8855-6.7906 10.338-11.334 1.3851-3.204-1.7873-6.4026-4.7266-7.1016z" opacity=".63942"/>
   <path d="m211.91 362.19c-4.9656-0.0625-9.5758 3.2066-11.703 7.5938-2.0514 5.2371-2.6784 10.932-2.8438 16.508-0.48528 1.1332-2.1187 1.3382-3.1797 1.75-4.7796 1.2905-10.289 1.1928-14.211 4.6953-6.1314 4.8862-8.7837 12.512-12.233 19.268-1.5952 3.7138-3.1709 7.7242-2.4096 11.84 0.35817 2.4586 0.16051 5.1455-1.498 7.1025-2.366 3.016-3.4952 6.81-3.3828 10.625-0.19505 4.6184 0.17195 9.5323 2.8984 13.43 1.5306 2.583 4.7239 3.1969 7.5 3.3203 6.381 0.4918 12.813 0.48532 19.195 0.38282 1.799-0.83101 3.4572-2.2892 5.5618-1.7888 7.9701 0.14921 15.932 0.51593 23.891 0.84598 6.0281 0.13998 12.058 0.20621 18.086 0.30997 1.8187 0.88804 3.5378 2.3332 5.694 1.7796 5.6-0.19674 11.2-0.57368 16.79-0.83432 2.3498-0.23812 3.2103-3.3003 1.9844-5.1016-1.8582-3.9112-5.0765-7.2982-5.8906-11.625-0.6632-4.7114 1.8825-8.9605 2.6094-13.492 0.0782-2.7136 0.20892-6.1051-2.1562-7.9297-0.0191-2.0021-0.24525-4.0402-1.4219-5.7344-4.3344-6.8398-8.85-13.622-14.102-19.781-3.6976-3.997-9.5066-4.3754-14.031-7-0.49999-5.7-0.46059-11.511-1.6719-17.109-1.1533-3.6308-4.4336-6.1868-7.7356-7.8216-1.7935-0.81562-3.7672-1.2682-5.7409-1.233zm-34.68 46.539c0.86197 0.17081 2.4726 0.41113 1.6875 1.5234-0.67185 1.6286-1.2448 3.3808-2.3672 4.7734-1.3104-1.4363-3.3225-1.2925-5.0938-1.4062 1.1314-0.59626 1.7407-1.6906 2.0703-2.8672 0.79558-1.293 2.547-1.2408 3.7031-2.0234zm-5.6094 8.7812c1.1709-0.14652-0.0972 0.74887 0 0zm-0.22657 8.3906c1.5887 0.92289 3.7998 0.30275 5.625 0.5 2.0658-0.41471 3.0771 1.8676 4.7578 2.6719 0.64396 0.42393 1.6315 0.64854 2.2344 0.0391 0.67678 0.31252 1.8676 0.6989 2.2188 1.0703-1.4223 0.76378-0.34241 2.6136 0.66406 3.2344 0.94744 0.87953 2.1297 1.6126 2.9766 2.5391-1.4505 0.57743-3.1348 1.3877-4.7031 1-2.1352-1.4045-3.8502-4.0808-6.6328-4.1797-1.5602 0.30806-1.0661 2.2494-0.19531 3.0391 2.5169 2.7959 6.0998 5.7832 10.141 4.8203 1.9992-0.54562 3.6774-2.0403 5.3828-2.9688-2.6453 5.6085-6.6554 10.647-11.169 14.981-1.0773 1.0175-2.1074 2.1706-3.7348 1.8482-3.3763 0.0206-6.8681 0.0613-10.12-0.86068-3.3738-1.7789-4.4112-5.8104-4.3203-9.3672-0.12177-3.9034-0.059-8.0053 2.1953-11.336 1.2467-2.0504 2.6276-4.0841 2.9453-6.5078 0.18936-0.58583 1.1456 0.17389 1.4375-0.5 0.0986-0.0143 0.19706-0.0201 0.29687-0.0234zm57.609 9.2266c-4.1769 2.8816-9.5325 1.8363-14.296 1.8024-3.3219-0.14448-6.636-0.47613-9.8678-1.2086 4.2078 0.27451 8.4359 0.25853 12.64 0.66737 3.8959 0.12659 7.9883 0.29653 11.61-1.3236zm16.344 18.516c-0.19903 0.63422-0.53668 0.78767-0.85938 0.0547 0.2866-0.0223 0.57136-0.0534 0.85938-0.0547zm-3.5312 0.6875c-0.11962 0.61924 0.65578 1.9893-0.42188 1.5547-0.56202 0.0992-1.3927-0.64415-0.57812-0.99218 0.26543-0.20618 0.76728-0.60797 1-0.5625z" opacity=".63942"/>
   <path d="m170.96 425.32c-1.6503-0.10761-2.1766 1.5766-2.5391 2.8516-1.5709 3.6367-4.2639 6.9088-4.4297 11.039-0.33782 4.2349-0.54389 8.9662 1.8906 12.656 2.343 3.4055 6.9675 3.144 10.617 3.2528 2.1163 0.016 4.6638 0.33276 6.1173-1.5966 3.9974-3.7993 7.7551-8.0233 10.367-12.898-0.15098-1.4972-1.757-0.38789-2.3281 0.20312-4.3535 2.8872-9.6112 4.0937-14.18 6.5391-1.1208 0.50944-2.3953 0.13514-3.4688-0.3125 5.2368 0.27877 9.8436-2.81 14.406-4.9688 0.77701-0.24578 2.3651-1.1722 1.2188-1.8906-1.9317-0.24272-4.0238-0.16751-5.6875-1.3828-1.7636-1.2337-3.7393-2.5702-4.6641-4.5625-0.33982-1.0627 1.0831-0.63773 1.5859-0.41406 2.3176 0.85785 3.6494 3.6509 6.2422 3.8203 1.3566-0.18805 3.2455-0.37558 4.1172-1.3672 0.28165-1.2956-1.4696-1.9289-2.1707-2.7917-0.57737-0.66559-2.0065-1.45-1.6887-2.427 1.1595-1.23-0.95094-2.2569-1.9766-2.4844-0.91699-0.0257-1.8745 0.39975-2.6406-0.41407-1.5505-1.2506-3.2158-2.7255-5.3905-2.5011-1.8416 0.0572-3.6151-0.11249-5.3986-0.35045z" opacity=".63942"/>
   <path d="m211.91 362c-5.9388 0.10682-11.454 4.5453-12.758 10.359-1.4966 4.5886-1.6581 9.4796-2.1406 14.211-3.3256 2.2944-7.7026 1.9523-11.484 3.1256-4.986 1.2431-8.6067 5.4112-11.382 9.5088-3.4093 6.1137-6.6988 12.366-8.9856 18.991-0.14447 3.4204 0.30094 6.9417-0.20312 10.32-1.5923 3.247-4.2914 6.1422-4.4171 9.9674-0.1563 3.619-0.40777 7.3199 0.19833 10.9 0.96601 3.4735 2.5617 7.7399 6.5391 8.5781 5.4947 1.0687 11.158 0.85133 16.734 1.1272 3.2188 0.12386 6.6573 0.0123 9.3438-2.0101 9.5889 0.0672 19.161 0.61572 28.742 0.92291 5.2391 0.1306 10.479 0.20115 15.719 0.29584 1.5023 0.7949 2.8422 2.3467 4.7086 1.784 6.06-0.43246 12.171-0.34327 18.205-1.0027 2.1688-0.81258 2.5433-3.7589 1.3203-5.5391-1.8596-3.6582-4.6925-6.8564-5.7266-10.844-0.4479-4.5428 1.3922-8.794 2.5469-13.086 0.19793-2.9401 0.32614-6.416-1.7969-8.7344-0.7255-0.50605-0.1093-1.7601-0.44531-2.5391-1.0175-3.9759-3.9722-7.1106-6.0785-10.558-3.184-4.5429-6.2249-9.2561-10.07-13.262-3.6331-3.2337-8.7582-3.7354-12.859-6.0781-1.0686-1.7208-0.35699-3.967-0.69689-5.9057-0.41627-3.8364-0.58047-7.7214-1.4203-11.493-1.2357-3.5112-4.4306-5.9682-7.5938-7.6953-1.8562-0.91886-3.926-1.407-6-1.3438zm-34.562 47.375c0.51068 0.12892 2.0598-0.35913 1.4766 0.61719-0.63804 1.6599-1.1803 3.5085-2.375 4.8359-1.1237-1.2056-2.8938-1.3797-4.4531-1.4141 1.0762-0.50418 1.4458-1.6356 1.6484-2.6797 0.90817-0.98752 2.395-1.2861 3.7031-1.3594z" opacity=".63942"/>
   <path d="m177.1 408.91c-1.8795-0.0543-4.0564 0.88516-4.3828 2.9297-0.582 0.59453-1.3109 1.8402-0.0625 2.1562 1.2957 0.0303 2.4121 0.7361 3.5859 1.1172 1.6356-0.0557 1.7678-2.2637 2.4992-3.3306 0.54134-0.86042 1.2066-2.8019-0.42106-2.8725-0.40585-0.0131-0.81287-0.013-1.2188 0z" opacity=".63942"/>
   <path d="m177.3 408.71c-2.0657-4e-3 -4.2128 1.0735-4.8359 3.1719-0.13898 0.9823-1.78 0.73765-1.3828 1.875 1.1025 1.0615 3.0063 0.0623 4.1953 1.1094 0.74625 0.64177 1.9127 0.55908 2.2344-0.46875 0.85582-1.74 2.1339-3.5602 1.9531-5.5625-0.60578-0.51825-1.4516-0.0805-2.1641-0.125z" opacity=".63942"/>
   <path d="m211.88 361.62c-6.1801-0.063-11.807 4.8116-13.218 10.748-1.393 4.4769-1.5382 9.2571-2.1175 13.83-2.307 1.5598-5.3442 1.6562-8.0049 2.3686-3.5217 0.5703-7.0294 1.7673-9.6366 4.2957-5.848 5.2281-8.7302 12.751-12.003 19.671-1.1406 2.8388-2.675 5.719-2.2248 8.8751-0.11153 2.3576 0.32147 4.8686-0.32644 7.1408-1.6838 3.1674-4.0393 6.185-4.2263 9.9199-0.53526 5.6625-0.63903 11.974 2.6638 16.877 1.6643 2.6309 4.8634 3.377 7.75 3.5781 6.4774 0.58885 13.014 0.52031 19.5 0.41406 1.9451-1.1193 4.0726-1.9635 6.3594-1.7188 13.378 0.32936 26.748 1.0663 40.133 1.0859 2.3497 0.16223 4.1499 2.5107 6.6553 1.8533 5.7969-0.39894 11.663-0.36022 17.407-1.1502 2.6461-0.43082 3.2522-3.9028 1.961-5.8984-1.9932-4.2828-5.811-8.0619-5.7969-13.031 0.24619-4.8991 3.1496-9.3868 2.5781-14.414 0.0594-1.9235-0.5042-3.8468-1.8203-5.2656-0.53157-1.826-0.51827-3.9104-1.6328-5.5859-4.0956-6.8014-8.6642-13.366-13.695-19.508-3.512-4.4696-9.5765-5.194-14.281-7.7188-0.73776-3.3006-0.44785-6.844-0.95313-10.227-0.4247-3.7116-0.53025-7.8889-3.3906-10.688-2.9849-3.253-7.1736-5.5674-11.68-5.4531z" opacity=".63942"/>
   <path d="m212.65 361.72c-5.9112 0.30198-11.315 4.6083-12.845 10.347-1.5581 4.6422-1.6443 9.5968-2.4053 14.38-2.1538 1.5234-5.0523 1.552-7.5529 2.2224-4.498 0.59684-8.7624 2.7449-11.76 6.1916-4.4613 4.8262-8.2053 10.433-11.109 16.243-0.93755 2.3425-3.6609 6.3083-3.9718 8.8166-0.16213 3.3353 1.3535 6.0239 2.3342 9.0215-2.2758 3.5874-6.9826 7.9283-6.8573 12.336-4e-3 4.4334 0.0281 8.68 2.2102 12.7 1.159 2.6193 5.6437 4.7157 8.5604 4.9616 6.5197 0.85337 13.181 1.0328 19.77 0.85874 2.2932 0.15439 4.2186-1.2647 6.2655-1.9222 14.043 0.38411 28.074 1.0868 42.122 1.2876 2.0675-0.26404 3.4431 1.896 5.5418 1.8611 6.2587-0.49909 12.577-0.44846 18.812-1.1484 2.7911-0.73175 3.2056-4.5681 1.7009-6.6493-1.7405-3.5184-4.5406-6.6651-5.3493-10.562-0.69907-5.7324 3.3881-10.901 2.7098-16.633 6e-3 -2.1266-1.2919-3.9989-2.3348-5.7656-0.21748-1.745-0.53784-3.5205-1.5391-5.0312-3.7504-6.2446-7.9734-12.3-12.49-18.05-2.1363-2.803-5.3112-4.0579-8.6808-5.1625-2.3363-1.0986-8.0346-2.2418-10.093-3.806-0.60408-5.7196 1.1096-11.671-0.39154-17.249-1.4449-4.1302-3.8627-6.8687-7.6954-8.5248-1.559-0.6068-3.2712-0.83114-4.9539-0.72332z" opacity=".48077"/>
  </g>
  <path d="m506.85 503.79c18.687 1.0347 35.109-4.6686 53.675-1.5492 17.175-9.4808-10.941-31.147-14.525-44.526-11.786-18.092-4.825-40.296 2.0006-58.81 7.3885-8.9626 2.1939-40.885-3.7596-37.028 6.9594 20.841-2.4367 42.697-10.992 61.565-17.337 5.1065-38.55 6.9421-50.691 24.17-10.966 6.2746-23.139 16.233-30.571 24.374 19.664-5.4932 33.208-23.971 50.315-34.101 12.667-5.3752 34.703-14.807 31.956 7.6404 2.0094 15.132 22.829 33 20.601 43.262-20.972-12.615-48.496-24.22-71.714-9.9445-14.221 9.3284-31.52 15.037-48.578 13.388 0.69358-11.954 24.679-25.437 17.053-35.355-10.445 7.1821-19.947 35.751-29.132 32.013 23.887-27.807 39.23-62.435 48.105-97.704-11.888 11.241-10.883 33.59-21.683 47.479-10.057 16.608-17.906 35.069-30.745 49.674-18.045 7.9723-38.048-3.6046-57.105 0.78661-16.388-1.2954-32.98-2.6848-49.184-5.0195-14.03 3.0479 24.323-24.861 25.846-32.232 9.4596-10.553-5.4302-29.856 13.688-24.964 36.969 3.4633 67.227 13.786 97.796-6.4396 13.316-14.74 30.466-55.886 19.571-75.063-1.8512-20.15-20.923-30.11-27.157-48.558-10.562-16.489-9.2658-38.579-16.543-56.052 17.175 4.175 18.022 23.636 22.874 38.427 8.738 22.886 29.109 40.247 34.117 64.538-1.9464 9.6379 14.699 34.843 16.022 22.8-10.483-15.06-19.174-51.501-33.649-66.827-6.4246-13.515-22.616-35.398-15.065-47.467 21.989-0.58073 34.327 18.553 45.974 33.868 1.9256 10.309 38.709 40.623 17.042 39.866-12.424 0.72552-23.569 5.1046-26.573 8.6147 1.7579 11.082 6.7134 19.16 18.527 20.255 6.2299 6.0782 10.069 10.764 16.702 13.324 4.6633-0.46253 8.7195-0.0952 17.542-2.7413 3.1726-0.95156 5.903-11.705 2.9263-20.337-6.4999-15.912-19.227-29.546-28.528-44.321-14.877-19.77-26.382-44.955-51.486-53.32-12.566-2.8407-25.094-6.4584-35.231-14.761 2.3708-14.642 1.1916-28.526-2.9106-42.751 1.8089-23.345-1.871-30.972-16.828-43.854-20.221-16.424-48.093-17.02-66.445 2.2909-13.631 15.583-10.892 28.284-17.191 45.801-2.0249 10.713-0.83321 21.725-1.1804 32.578-14.437 11.466-31.437 10.914-48.853 13.756-31.306 9.7774-47.533 40.902-58.781 69.278-10.193 13.526-21.103 47.839-18.075 51.066 3.0129 15.68 5.5544 29.43-11.273 45.34-11.586 27.329-10.927 61.956 6.4589 86.711 17.477 9.479 39.383 4.7222 58.627 7.4256 16.7-0.22416 35.871 5.3628 49.18-7.6262 24.967 0.69265 50.441 1.492 75.59 1.3985 18.48 1.8701 37.202 4.8229 55.647 2.6368 19.411 2.6391 39.794-6.5805 56.803 7.8854 6.5742 0.39129 13.225-0.66841 19.811-0.8607zm-24.166-6.1755c-14.081-14.389 17.075-19.974 28.382-17.759 11.337-4.4428 4.8181 26.508-0.98389 14.069 1.4257-15.51-4.9738-6.2909-5.9361 2.1462-6.2954 0.65157-10.685-19.655-9.514-4.2221 4.6 7.9637-7.8038 8.8764-11.948 5.7664zm40.3-1.5749c-11.445-12.09 9.9555-20.974 12.882-3.806-5.6176 14.13-6.5519-15.96-8.8871-0.0774-0.3516 1.5164 0.93731 9.004-3.9944 3.8834zm-254.05-2.985c-11.784-5.6568 18.424-20.008 20.687-32.374 9.8673-13.318 20.555-26.521 26.064-42.369 14.283-0.32788 28.965 18.029 16.339 31.443-9.2612 16.478-21.216 23.624-35.108 36.972-7.4415 9.5848-17.464 8.1319-27.982 6.3286zm-60.783-1.8397c-22.889-6.9077-25.717-33.914-24.238-54.17-1.9712-19.879 9.5397-36.572 20.356-51.99-3.0147-4.9287 2.118-18.317 9.8272-11.707 1.7977 3.3345 5.7815-1.7983 8.8401-5.1913-0.67795-9.9349 2.5667-16.851 9.5928-1.1424 11.452 4.2791 19.191 20.727 29.559 21.892-11.33-14.29 14.926 5.8009 21.178 5.996 19.648 12.52 43.652 13.055 65.607 18.82 34.128-3.6167 66.588 10.703 96.662-6.7021 4.7226-3.3971 26.249-46.254 18.693-27.422-5.6722 20.118-10.255 31.778-26.408 40.776-22.367 12.299-66.861 1.6437-91.365 1.4038-17.799-8.0513-38.683-7.2968-55.584-18.092-5.8316-3.7547-27.588-12.331-9.2117 1.168 8.7001 5.7972 23.291 14.509-2.9954 19.83-19.337 7.4288-16.228-15.493-36.42-16.605 12.307 12.188 21.182 24.885 38.085 22.015 10.578 0.66561 26.459-25.96 28.653-7.4017-10.997 24.26-27.342 45.537-46.976 63.421-4.1938 6.0136-9.7461 8.707-17.038 7.1492-12.265-0.32285-24.768 0.61817-36.815-2.0456zm58.546-41.24c14.976-6.0439 29.411-10.844 35.747-25.098-20.422 8.1218-52.879 31.154-75.431 32.128-13.831 2.2548-28.125-22.265-34.578-14.32 18.831 8.1368 22.497 23.255 42.925 21.287l16.284-8.1686zm70.173-44.539c-25.112-5.7327-52.609-8.5008-73.159-25.552-19.937-12.016-10.823-35.517-2.0902-51.382 17.668-16.193 28.99-37.572 43.105-56.648-2.0679-12.993-1.0827-28.223 12.56-34.707 9.5262 1.4984 13.53 25.771 29.583 27.169 23.708 10.083 54.106 6.99 72.128-12.608 14.089 5.7844 6.5849 37.908 21.877 50.076 2.549 17.466 23.412 25.398 23.525 43.283-0.91986 6.8903 4.7251 16.522-2.797 20.875-5.2612 12.173-10.239 36.842-27.646 40.652-26.849 6.9075-69.083 5.4847-97.088-1.1577zm-33.144-65.045c40.294-36.474 83.393-33.298 122.27 4.7703 9.4584-4.2764-18.465-21.63-25.062-25.182-42.339-21.433-73.482-4.8365-94.629 9.0568-12.515 12.886-10.536 21.123-2.5787 11.355zm-55.014 33.959c-2.1984-5.2053-20.623-16.325-6.0874-11.984 4.0352 3.0008 18.463 23.55 6.0874 11.984zm-48.788-15.269c-6.6255-20.749 23.616-31.352 32.706-13.979 15.455 8.7941 12.794-22.916 24.544-29.487 14.322-20.718 28.831-41.338 42.923-62.19 3.5564 18.966-12.923 32.367-20.612 47.886-14.216 17.182-31.105 34.402-34.935 57.121-9.0302-0.65687-12.352-1.084-17.485-10.281-10.892-1.1265-5.08 33.015-14.776 18.849 0.92074-6.267 3.2354-31.206-3.0952-12.725 0.0857 7.1305-4.4826 28.084-9.6401 11.486l0.0893-2.9884 0.2817-3.6906zm321.88-18.829c-2.9428 3.2231 7.4832 22.925 2.0022 23.562-7.613 0.88403-6.4716-12.168-15.726-17.335-5.4796-3.059-16.934-1.0134-16.941-6.5063-8e-3 -7.14 32.65-17.755 40.332-4.1661 1.776 3.7968 8.7122 24.977 4.3071 27.191-4.7155 2.3693-10.361-20.119-13.975-22.745zm-290.06-2.4186c-3.9481-9.3439-26.711 1.4004-24.123-7.1142 5.6222-7.5929 6.9357-5.7116 11.393-8.0546-6.7105-11.533 25.046-22.074 33.776-11.484-4.6361 6.5824-10.403 37.938-21.046 26.653zm227.9-46.038c8.1039-3.1272 48.755-1.9285 30.84 2.3329-3.4433-0.2292-29.386 1.4446-30.84-2.3329zm-222.59 12.801c-28.752 5.367-1.5346-24.926 3.9928-35.854 11.351-19.091 34.962-25.583 55.833-24.457-4.286 16.763-17.286 30.444-26.553 44.971-8.0468 16.806-16.099 17.29-33.272 15.339zm115.25-43.331c-19.851-6.3649-30.279-28.44-25.979-48.277 0.41707-16.519 7.3926-42.53 29.435-34.381 13.473-1.4514-13.151-12.791-17.603-2.7817-12.684 11.875-5.0328-10.635-0.10178-17.537 9.3751-18.44 25.631-22.478 43.419-20.769 21.895 4.5289 41.638 22.352 38.37 43.696-3.9516-7.9529-33.022-10.98-26.145-1.235 24.846-8.1876 28.186 20.513 29.064 37.863 1.901 17.962-6.3207 38.637-25.829 42.434-14.324 4.1506-30.252 5.7313-44.629 0.98867zm30.136-12.688c-0.3856-4.3296-30.941-0.90854-8.1052 1.3334 2.7397-0.0643 5.5253-0.34556 8.1052-1.3334zm2.072-12.491c17.505-8.3916-41.533-9.4772-16.685 2.6866 4.9206 1.722 13.209 2.3607 16.685-2.6866zm4.5428-12.669c3.826-9.0602-2.7999-10.82-5.1737-3.0666-12.135-3.3769 0.36902 7.2081 5.1737 3.0666zm-20.461-1.4324c-5.5829-0.88542-13.446-13.864-12.35-0.0312 2.7002 2.7315 9.164 1.3847 12.35 0.0312zm45.426-22.537c-1.3664-11.615-25.347-14.787-22.513 2.0279 8.9406-10.23 13.86-1.5066 22.513-2.0279zm-67.445-2.6729c4.5679-5.0879 20.011 1.6709 7.0625-6.9813-8.4642-4.2006-23.512 17.643-7.0625 6.9813zm113.55 256.73c21.666-23.531 17.427-57.097 21.103-86.413-7.6456 13.773-5.8356 37.514-11.208 54.717-0.26439 12.195-13.124 23.3-13.199 33.042zm42.177-35.918c6.9158-13.298 31.786-17.669 35.261-25.535-19.162-0.83121-32.728 16.543-43.456 30.028-10.877 11.608 5.3183 0.8994 8.1951-4.4929z" stroke="#3a1310"/>
 </g>
</svg>
