<?xml version="1.0" encoding="UTF-8"?>
<svg enable-background="new 0 0 65 65" version="1.1" viewBox="0 0 65 81.25" xml:space="preserve" xmlns="http://www.w3.org/2000/svg" xmlns:cc="http://creativecommons.org/ns#" xmlns:dc="http://purl.org/dc/elements/1.1/" xmlns:rdf="http://www.w3.org/1999/02/22-rdf-syntax-ns#"><metadata><rdf:RDF><cc:Work rdf:about=""><dc:format>image/svg+xml</dc:format><dc:type rdf:resource="http://purl.org/dc/dcmitype/StillImage"/><dc:title/></cc:Work></rdf:RDF></metadata><path d="m34.5 35.3c0.7-0.7 1.1-1.7 1.1-2.7 0-2.1-1.7-3.8-3.8-3.8s-3.8 1.7-3.8 3.8c0 1 0.4 2 1.1 2.7l-1.4 5.9c-0.1 0.3 0 0.6 0.2 0.9s0.5 0.4 0.8 0.4h6.3c0.3 0 0.6-0.1 0.8-0.4s0.3-0.6 0.2-0.9l-1.5-5.9zm-4.5 5.2 1.3-5.3c0.1-0.4-0.1-0.8-0.4-1.1-0.5-0.3-0.8-0.9-0.8-1.5 0-1 0.8-1.8 1.8-1.8s1.8 0.8 1.8 1.8c0 0.6-0.3 1.2-0.8 1.5-0.4 0.2-0.5 0.7-0.4 1.1l1.3 5.3h-3.8z"/><path d="m55.7 36.6c0.6 1.9 2.3 3.2 4.3 3.2 2.5 0 4.5-2 4.5-4.5s-2-4.5-4.5-4.5c-2.2 0-4.1 1.6-4.4 3.8h-12.7v-4.3h7.8c0.3 0 0.5-0.1 0.7-0.3l4.2-4.2c0.6 0.3 1.2 0.4 1.8 0.4 2.5 0 4.5-2 4.5-4.5s-2-4.5-4.5-4.5-4.5 2-4.5 4.5c0 1.1 0.4 2.1 1.1 2.9l-3.7 3.7h-7.5c-0.3-1.4-1.2-2.5-2.4-3.1l6.9-6.1 0.3-0.3 2.2-5c0.3 0.1 0.6 0.1 0.9 0.1 2.5 0 4.5-2 4.5-4.5s-2-4.5-4.5-4.5-4.5 2-4.5 4.5c0 1.5 0.7 2.8 1.8 3.6l-2.1 4.8-6.4 5.6v-2.3c0-4.2-3.4-7.6-7.6-7.6s-7.6 3.4-7.6 7.6v1.3l-2.6-3.7v-9c2-0.5 3.5-2.2 3.5-4.4 0-2.5-2-4.5-4.5-4.5s-4.5 2-4.5 4.5c0 2.1 1.5 3.9 3.5 4.4v9.3c0 0.2 0.1 0.4 0.2 0.6l3.8 5.4c-1.4 0.6-2.4 1.8-2.7 3.3h-6.3l-3.7-3.7c0.7-0.8 1.1-1.8 1.1-2.9 0-2.5-2-4.5-4.5-4.5s-4.6 2-4.6 4.5 2 4.5 4.5 4.5c0.7 0 1.3-0.1 1.8-0.4l4.2 4.2c0.2 0.2 0.4 0.3 0.7 0.3h6.6v4.3h-11.4c-0.3-2.1-2.2-3.8-4.4-3.8-2.5 0-4.5 2-4.5 4.5s2 4.5 4.5 4.5c2 0 3.7-1.4 4.3-3.2h11.6v4.4h-6.6c-0.3 0-0.5 0.1-0.7 0.3l-3.5 3.5c-0.8-0.6-1.7-0.9-2.7-0.9-2.5 0-4.5 2-4.5 4.5s2 4.5 4.5 4.5 4.5-2 4.5-4.5c0-0.7-0.2-1.4-0.5-2.1l3.3-3.3h6.3c0.5 2.1 2.3 3.7 4.6 3.7h2.1v8.6l-1.7 1.1c-0.8-0.8-1.9-1.3-3.1-1.3-2.5 0-4.5 2-4.5 4.5s2 4.5 4.5 4.5c1.7 0 3.2-0.9 4-2.4 0.6-1.2 0.7-2.5 0.2-3.7 1.8-1.3 2.6-1.4 2.6-2.3v-9.2h4.4v6.1c0 0.4 0.2 0.7 0.6 0.9l3.9 1.9c-0.7 2.9 1.5 5.5 4.4 5.5 2.5 0 4.5-2 4.5-4.5s-2-4.5-4.5-4.5c-1.4 0-2.7 0.7-3.5 1.7l-3.4-1.7v-5.5h2.1c2.3 0 4.1-1.6 4.6-3.7h7.5l3.3 3.3c-0.3 0.6-0.5 1.3-0.5 2.1 0 2.5 2 4.5 4.5 4.5s4.5-2 4.5-4.5-2-4.5-4.5-4.5c-1 0-1.9 0.3-2.7 0.9l-3.5-3.5c-0.1 0.1-0.4 0-0.7 0h-7.8v-4.3h12.8zm4.3-3.8c1.4 0 2.5 1.1 2.5 2.5s-1.1 2.5-2.5 2.5-2.5-1.1-2.5-2.5c0-1.3 1.1-2.5 2.5-2.5zm-2.5-13.6c1.4 0 2.5 1.1 2.5 2.5s-1.1 2.5-2.5 2.5-2.5-1.1-2.5-2.5 1.1-2.5 2.5-2.5zm-6.8-12.4c1.4 0 2.5 1.1 2.5 2.5s-1.1 2.5-2.5 2.5-2.5-1.1-2.5-2.5 1.1-2.5 2.5-2.5zm-32.5-1.5c0-1.4 1.1-2.5 2.5-2.5s2.5 1.1 2.5 2.5-1.1 2.5-2.5 2.5-2.5-1.1-2.5-2.5zm-13.2 16.4c0-1.4 1.1-2.5 2.5-2.5s2.5 1.1 2.5 2.5-1.1 2.5-2.5 2.5-2.5-1.1-2.5-2.5zm0 16.1c-1.4 0-2.5-1.1-2.5-2.5s1.1-2.5 2.5-2.5 2.5 1.1 2.5 2.5-1.1 2.5-2.5 2.5zm2.4 13.1c-1.4 0-2.5-1.1-2.5-2.5s1.1-2.5 2.5-2.5 2.5 1.1 2.5 2.5c0 1.3-1.1 2.5-2.5 2.5zm17.6 10c-0.4 0.8-1.3 1.3-2.2 1.3-1.4 0-2.5-1.1-2.5-2.5s1.1-2.5 2.5-2.5c1.9 0 3.2 1.9 2.2 3.7zm17.9-6.7c1.4 0 2.5 1.1 2.5 2.5s-1.1 2.5-2.5 2.5-2.5-1.1-2.5-2.5 1.1-2.5 2.5-2.5zm-11-38.7c3.1 0 5.6 2.5 5.6 5.6v3.5h-11.2v-3.5c0-3.1 2.5-5.6 5.6-5.6zm9 26.5c0 1.5-1.2 2.7-2.7 2.7h-12.6c-1.5 0-2.7-1.2-2.7-2.7v-12.7c0-1.5 1.2-2.7 2.7-2.7h12.6c1.5 0 2.7 1.2 2.7 2.7v12.7zm16.7 3.9c1.4 0 2.5 1.1 2.5 2.5s-1.1 2.5-2.5 2.5-2.5-1.1-2.5-2.5 1.1-2.5 2.5-2.5z"/><path d="m24.431 44.216c-0.40444-0.19584-0.90795-0.73488-1.1189-1.1979-0.5171-1.1349-0.5182-13.564-0.0013-14.699 0.65066-1.428 1.6232-1.6034 8.8914-1.6034 9.1849 0 8.4254-0.73463 8.5634 8.2829 0.11484 7.506-0.05972 8.5639-1.5232 9.2307-1.0954 0.49908-13.777 0.48733-14.811-0.01373zm11.503-2.868c0.05226-0.56806-0.2067-2.1098-0.57548-3.4261-0.59398-2.12-0.61465-2.5012-0.1811-3.3396 0.87217-1.6866 0.6324-3.3164-0.68114-4.63-0.98168-0.98168-1.4186-1.1706-2.7078-1.1706-3.0007 0-4.5845 2.4391-3.5283 5.4338 0.54474 1.5445 0.53879 1.7639-0.1218 4.4878-0.38199 1.5752-0.60761 3.0905-0.50137 3.3673 0.1572 0.40966 0.93853 0.48537 4.1976 0.40672l4.0044-0.09664z" fill="#999" stroke-width=".34428"/><g fill="#f00" stroke-width=".34428"><path d="m49.094 10.879c-1.4131-1.4131-0.46309-3.7871 1.5154-3.7871 1.3881 0 2.2717 0.89365 2.2717 2.2976 0 1.9835-2.3635 2.913-3.7871 1.4894z"/><path d="m58.633 37.039c-1.2438-0.97836-1.2544-2.445-0.02474-3.4123 1.084-0.85268 1.7769-0.89658 2.8033-0.17761 0.52398 0.36701 0.76516 0.88886 0.76516 1.6556 0 2.2086-1.8862 3.2382-3.5438 1.9343z"/><path d="m41.332 58.233c-1.0723-1.0723-1.0723-2.0575 0-3.1298 0.46478-0.46478 1.169-0.84505 1.5649-0.84505 0.92886 0 2.41 1.4811 2.41 2.41s-1.4811 2.41-2.41 2.41c-0.39592 0-1.1001-0.38027-1.5649-0.84505z"/><path d="m22.24 61.907c-1.7262-0.54952-2.2788-2.6156-1.0328-3.8616 1.7507-1.7507 4.5396 0.10318 3.7148 2.4693-0.33203 0.95245-1.7505 1.6889-2.682 1.3924z"/><path d="m5.74 23.055c-0.8927-1.1349-0.8927-1.5265 0-2.6614 1.316-1.673 4.1064-0.76878 4.1064 1.3307 0 2.0995-2.7904 3.0037-4.1064 1.3307z"/></g><g fill="#008000" stroke-width=".34428"><path d="m3.4616 36.888c-1.0723-1.0723-1.0723-2.0575 0-3.1298 0.46478-0.46478 1.169-0.84505 1.5649-0.84505 0.92887 0 2.41 1.4811 2.41 2.41s-1.4811 2.41-2.41 2.41c-0.39592 0-1.1001-0.38027-1.5649-0.84505z"/><path d="m5.8715 49.971c-1.0723-1.0723-1.0723-2.0575 0-3.1298 1.0813-1.0813 2.0587-1.0711 3.1628 0.03297 1.0188 1.0188 0.91074 2.3373-0.27358 3.3394-0.98172 0.8307-1.8924 0.75424-2.8892-0.24256z"/><path d="m20.175 7.5129c-1.7278-0.55656-2.2788-2.6176-1.0328-3.8636 1.4081-1.4081 3.7871-0.36021 3.7871 1.668 0 1.3736-1.527 2.5909-2.7542 2.1955z"/><path d="m55.861 23.332c-0.75627-0.83567-0.72467-2.5663 0.05982-3.2763 1.4488-1.3112 3.846-0.30823 3.846 1.6091 0 1.9375-2.641 3.0648-3.9059 1.6672z"/><path d="m56.198 50.102c-0.60152-0.47316-0.90713-1.0447-0.90713-1.6964 0-1.083 1.3526-2.41 2.4564-2.41 1.7594 0 2.6615 2.8006 1.3307 4.1314-0.87971 0.87971-1.7393 0.87226-2.8799-0.02499z"/></g></svg>
